<svg width="273" height="286" viewBox="0 0 273 286" fill="none" xmlns="http://www.w3.org/2000/svg">
<path fill-rule="evenodd" clip-rule="evenodd" d="M85.6623 206.125C23.0978 140.762 -28.2101 64.4966 17.493 29.6752C82.6711 -19.9843 132.797 46.856 157.595 83.9748C157.568 84.0792 157.542 84.184 157.516 84.2891C156.083 90.5391 154.586 97.5703 153.023 105.383C149.378 106.555 145.667 107.466 141.891 108.117C138.245 108.768 134.469 109.094 130.562 109.094C128.479 109.094 126.331 108.898 124.117 108.508C122.294 108.247 120.276 107.792 118.062 107.141C115.979 106.359 114.026 105.253 112.203 103.82C111.292 106.034 111.096 108.052 111.617 109.875C112.138 111.698 112.724 113.065 113.375 113.977C114.807 116.19 117.542 118.013 121.578 119.445C125.745 120.878 131.148 121.594 137.789 121.594C139.872 121.594 141.891 121.529 143.844 121.398C145.927 121.268 147.88 121.008 149.703 120.617C148.141 128.43 146.253 136.503 144.039 144.836C141.826 153.039 139.221 161.242 136.227 169.445C134.534 173.742 132.971 177.583 131.539 180.969C130.107 184.354 128.674 187.349 127.242 189.953C125.289 189.302 123.271 188.716 121.188 188.195C119.234 187.805 117.151 187.609 114.938 187.609C108.948 187.609 104.065 188.26 100.289 189.562C96.513 190.995 93.5833 192.688 91.5 194.641C89.2865 196.594 87.7891 198.612 87.0078 200.695C86.2652 202.8 85.8166 204.61 85.6623 206.125ZM99.6798 220.414C124.959 245.577 151.011 268.418 172.493 285.675C208.653 240.65 242.098 191.689 261.359 136.846C299.085 25.8045 229.241 -11.9108 196.493 3.17522C175.861 12.6801 168.787 36.3037 167.817 59.7766C168.286 59.0071 168.759 58.2587 169.234 57.5312C171.578 54.0156 174.117 51.0859 176.852 48.7422C179.716 46.2682 182.841 44.3802 186.227 43.0781C189.612 41.776 193.518 41.125 197.945 41.125C201.201 41.125 203.74 41.776 205.562 43.0781C207.516 44.3802 208.948 46.0078 209.859 47.9609C210.901 49.9141 211.487 52.0625 211.617 54.4062C211.878 56.6198 212.008 58.7031 212.008 60.6562C212.008 64.9531 210.966 69.6406 208.883 74.7188C206.799 79.7969 203.87 84.8099 200.094 89.7578C196.318 94.7057 191.76 99.3932 186.422 103.82C181.214 108.247 175.354 111.893 168.844 114.758C166.63 123.352 164.417 131.88 162.203 140.344C160.12 148.677 158.036 155.578 155.953 161.047C154.13 166.125 151.786 171.789 148.922 178.039C146.188 184.289 142.802 190.279 138.766 196.008C141.24 197.57 143.714 199.198 146.188 200.891C148.792 202.583 151.396 204.081 154 205.383C156.604 206.815 159.208 207.987 161.812 208.898C164.547 209.81 167.411 210.266 170.406 210.266C173.531 210.135 176.591 209.68 179.586 208.898C182.19 208.247 184.924 207.141 187.789 205.578C190.654 204.146 193.323 202.062 195.797 199.328C196.708 200.891 196.969 203.234 196.578 206.359C196.318 209.484 195.341 212.609 193.648 215.734C191.956 218.859 189.547 221.594 186.422 223.938C183.297 226.281 179.391 227.453 174.703 227.453C169.755 227.453 165.133 226.737 160.836 225.305C156.539 224.003 152.503 222.375 148.727 220.422C144.951 218.469 141.37 216.32 137.984 213.977C134.729 211.763 131.669 209.68 128.805 207.727C124.898 211.503 120.602 214.562 115.914 216.906C111.227 219.25 106.018 220.422 100.289 220.422C100.084 220.422 99.8811 220.419 99.6798 220.414ZM111.227 207.922C109.013 208.573 107.06 209.224 105.367 209.875C103.935 210.135 102.828 210.005 102.047 209.484C101.266 209.094 100.875 208.443 100.875 207.531C100.875 206.229 101.982 204.862 104.195 203.43C106.279 202.128 109.664 201.477 114.352 201.477C115.393 201.477 116.891 201.802 118.844 202.453C115.979 205.448 113.44 207.271 111.227 207.922ZM176.656 82.5312C177.698 78.7552 178.544 75.8906 179.195 73.9375C181.148 68.3385 183.557 64.1719 186.422 61.4375C189.286 58.5729 191.63 57.1406 193.453 57.1406C195.536 57.1406 196.578 58.8984 196.578 62.4141C196.578 68.2734 194.43 74.1328 190.133 79.9922C185.966 85.8516 180.367 91.0599 173.336 95.6172C174.508 90.6693 175.615 86.3073 176.656 82.5312Z" fill="#D60055"/>
</svg>
