<svg width="330" height="286" viewBox="0 0 330 286" fill="none" xmlns="http://www.w3.org/2000/svg">
<path d="M73.1347 125.386C73.3474 124.28 73.5175 123.387 73.6451 122.706C73.9003 121.473 74.2618 119.835 74.7297 117.794C75.1125 116.05 75.6228 113.796 76.2608 111.031C76.9414 108.266 77.792 104.821 78.8128 100.696C78.6852 100.228 78.4938 99.8663 78.2386 99.6111C78.0685 99.441 77.9196 99.3346 77.792 99.2921C78.8128 98.8242 79.8336 98.4414 80.8544 98.1437C81.8751 97.846 82.9172 97.6971 83.9805 97.6971C85.0863 97.6971 86.1922 97.8885 87.298 98.2713C88.4039 98.6116 89.3821 99.2283 90.2328 100.121C91.0834 100.972 91.7214 102.121 92.1467 103.567C92.6146 104.97 92.7422 106.735 92.5295 108.862C92.3169 111.074 91.8278 113.094 91.0622 114.923C90.3391 116.709 89.4247 118.325 88.3188 119.772C87.213 121.175 85.9795 122.43 84.6185 123.536C83.3 124.599 81.9389 125.513 80.5354 126.279C79.1318 127.045 77.7282 127.661 76.3246 128.129C74.9211 128.554 73.6451 128.852 72.4967 129.022C72.7519 127.661 72.9646 126.449 73.1347 125.386Z" fill="#BB004F"/>
<path d="M176.616 149.183C175.893 149.395 175.255 149.608 174.702 149.821C174.235 149.906 173.873 149.863 173.618 149.693C173.363 149.566 173.235 149.353 173.235 149.055C173.235 148.63 173.597 148.183 174.32 147.715C175 147.29 176.106 147.077 177.637 147.077C177.977 147.077 178.467 147.184 179.105 147.396C178.169 148.375 177.339 148.97 176.616 149.183Z" fill="#BB004F"/>
<path d="M197.989 108.224C198.329 106.99 198.606 106.055 198.818 105.417C199.456 103.588 200.243 102.227 201.179 101.334C202.115 100.398 202.88 99.9301 203.476 99.9301C204.156 99.9301 204.496 100.504 204.496 101.653C204.496 103.567 203.795 105.481 202.391 107.395C201.03 109.309 199.201 111.01 196.904 112.498C197.287 110.882 197.649 109.457 197.989 108.224Z" fill="#BB004F"/>
<path fill-rule="evenodd" clip-rule="evenodd" d="M172.493 285.675C92.8264 221.675 -49.707 80.8752 17.493 29.6752C87.0627 -23.3303 139.484 56.3921 162.259 91.0283C166.983 98.2127 170.432 103.457 172.493 105.175C165.66 78.0085 160.893 19.5752 196.493 3.17522C229.241 -11.9108 299.085 25.8045 261.359 136.846C260.635 137.543 259.928 138.146 259.236 138.656C258.428 139.209 257.726 139.485 257.131 139.485C256.79 139.485 256.471 139.422 256.174 139.294C255.918 139.124 255.684 138.847 255.472 138.465C255.302 138.039 255.153 137.444 255.025 136.678C254.898 135.913 254.791 134.892 254.706 133.616C254.919 133.318 255.153 132.999 255.408 132.659C255.663 132.276 255.918 131.808 256.174 131.255C256.429 130.66 256.684 129.958 256.939 129.15C257.237 128.299 257.535 127.279 257.832 126.088C258.258 124.641 258.513 123.238 258.598 121.877C258.683 120.516 258.725 119.495 258.725 118.815C258.725 118.432 258.47 118.177 257.96 118.049C257.79 118.006 257.577 117.985 257.322 117.985C257.109 117.943 256.833 117.943 256.493 117.985C255.642 118.028 255.025 118.177 254.642 118.432C254.26 118.644 253.834 119.261 253.366 120.282C253.111 120.792 252.792 121.494 252.409 122.387C252.069 123.28 251.729 124.301 251.389 125.45C251.091 126.555 250.814 127.768 250.559 129.086C250.347 130.362 250.24 131.681 250.24 133.042C250.24 133.765 250.304 134.467 250.432 135.147C249.581 136.466 248.645 137.55 247.624 138.401C246.604 139.209 245.54 139.613 244.435 139.613C242.733 139.613 241.606 139.124 241.053 138.146C240.5 137.167 240.33 135.721 240.543 133.807C240.628 132.957 240.862 131.829 241.245 130.426C241.585 129.192 242.074 127.598 242.712 125.641C243.393 123.685 244.307 121.239 245.455 118.304C245.115 118.177 244.732 118.113 244.307 118.113C243.924 118.113 243.541 118.134 243.159 118.177C242.691 118.262 242.244 118.347 241.819 118.432C240.713 118.772 239.841 119.41 239.203 120.346C238.608 121.239 238.118 122.302 237.736 123.536C237.651 123.748 237.48 124.28 237.225 125.131C237.013 125.981 236.757 127.023 236.46 128.257C236.246 129.111 236.055 130.03 235.885 131.016C235.76 131.177 235.633 131.342 235.503 131.51C234.78 132.446 233.993 133.424 233.142 134.445C232.334 135.423 231.547 136.338 230.782 137.189C230.016 137.997 229.293 138.677 228.612 139.23C227.932 139.741 227.379 139.996 226.954 139.996C226.443 139.996 226.039 139.889 225.741 139.677C225.486 139.422 225.295 139.103 225.167 138.72C225.04 138.337 224.955 137.933 224.912 137.508C224.912 137.04 224.933 136.614 224.976 136.232L225.295 134.637C225.38 134.211 225.444 133.85 225.486 133.552C225.571 133.212 225.635 132.893 225.678 132.595C225.763 132.255 225.848 131.893 225.933 131.51C226.358 129.554 226.698 127.959 226.954 126.726C227.209 125.492 227.4 124.514 227.528 123.791C227.655 123.068 227.719 122.579 227.719 122.323C227.719 122.026 227.698 121.834 227.655 121.749C227.57 121.707 227.4 121.685 227.145 121.685C226.932 121.685 226.613 121.707 226.188 121.749C225.805 121.792 225.316 121.877 224.721 122.004C225.614 120.643 225.954 119.559 225.741 118.751C225.571 117.9 225.189 117.262 224.593 116.837C223.87 116.369 222.934 116.029 221.786 115.816C220.808 115.731 219.574 116.071 218.086 116.837C216.597 117.602 215.087 118.751 213.556 120.282C212.025 121.771 210.6 123.578 209.281 125.705C208.005 127.831 207.07 130.192 206.474 132.786C206.006 134.7 205.836 136.359 205.964 137.763C206.091 139.124 206.389 140.251 206.857 141.144C207.325 141.995 207.899 142.611 208.58 142.994C209.26 143.42 209.898 143.632 210.494 143.632C211.77 143.547 213.046 143.271 214.322 142.803C215.427 142.378 216.597 141.718 217.83 140.825C219.064 139.889 220.191 138.571 221.212 136.87C221.169 138.018 221.233 138.975 221.403 139.741C221.616 140.506 221.828 141.123 222.041 141.591C222.296 142.144 222.615 142.569 222.998 142.867C223.381 143.122 223.828 143.292 224.338 143.377C224.848 143.505 225.38 143.547 225.933 143.505C226.528 143.462 227.103 143.356 227.655 143.186C228.208 143.016 228.698 142.803 229.123 142.548C229.761 142.122 230.548 141.399 231.483 140.379C232.462 139.315 233.44 138.167 234.418 136.933C234.743 136.527 235.064 136.123 235.381 135.72C235.377 135.892 235.375 136.062 235.375 136.232C235.375 136.955 235.481 137.763 235.694 138.656C235.949 139.507 236.353 140.315 236.906 141.08C237.502 141.803 238.31 142.42 239.331 142.93C240.351 143.441 241.67 143.696 243.286 143.696C244.902 143.696 246.37 143.292 247.688 142.484C249.007 141.633 250.155 140.442 251.133 138.911C251.601 140.4 252.154 141.548 252.792 142.356C253.473 143.122 254.387 143.505 255.536 143.505C256.788 143.505 258.122 143.013 259.538 142.03C245.43 180.947 218.369 228.551 172.493 285.675ZM59.3541 151.161C58.9714 151.458 58.6949 151.671 58.5248 151.799C59.0777 152.479 59.6944 153.011 60.3749 153.393C61.0129 153.776 61.7147 153.968 62.4803 153.968C63.9689 153.968 65.0535 153.627 65.734 152.947C66.4146 152.309 66.9675 151.437 67.3928 150.331C67.8181 149.31 68.2222 148.077 68.605 146.631C69.0303 145.227 69.4344 143.717 69.8172 142.101C70.2 140.442 70.5615 138.762 70.9017 137.061C71.242 135.36 71.5823 133.701 71.9225 132.085C76.0907 131.872 79.791 131 83.0235 129.469C86.256 127.938 88.9993 126.088 91.2536 123.918C93.5078 121.707 95.2729 119.304 96.5489 116.709C97.8248 114.115 98.5904 111.627 98.8456 109.245C98.9732 107.969 98.9094 106.48 98.6542 104.779C98.399 103.077 97.8248 101.461 96.9317 99.9301C96.081 98.3989 94.8263 97.1017 93.1675 96.0383C91.5513 94.975 89.4034 94.4434 86.7238 94.4434C84.0443 94.4434 81.5987 94.6986 79.387 95.209C77.1753 95.7194 75.2401 96.3361 73.5813 97.0591C71.9225 97.7396 70.5189 98.4414 69.3706 99.1645C68.2647 99.8875 67.4353 100.44 66.8824 100.823C65.8191 101.546 65.2874 102.248 65.2874 102.929C65.2874 103.609 65.415 104.268 65.6702 104.906C65.7978 105.204 65.9467 105.481 66.1168 105.736C66.4146 106.289 66.8399 106.799 67.3928 107.267C68.1159 106.501 68.8602 105.778 69.6258 105.098C70.3913 104.375 71.1144 103.737 71.7949 103.184C72.5605 102.546 73.3474 101.972 74.1555 101.461C73.8577 102.525 73.4537 104.013 72.9433 105.927C72.4329 107.841 71.8587 109.989 71.2207 112.371C70.5827 114.71 69.9235 117.198 69.243 119.835C68.5624 122.43 67.8819 124.96 67.2014 127.427C66.5634 129.894 65.968 132.212 65.415 134.381C64.8621 136.551 64.4155 138.337 64.0753 139.741C63.4373 142.378 62.8206 144.462 62.2251 145.993C61.6296 147.524 61.098 148.694 60.6301 149.502C60.1197 150.31 59.6944 150.863 59.3541 151.161ZM111.159 106.501C111.542 106.034 111.797 105.566 111.924 105.098C112.052 104.672 112.095 104.183 112.052 103.63C112.052 103.077 111.967 102.588 111.797 102.163C111.627 101.695 111.371 101.334 111.031 101.078C110.733 100.781 110.351 100.674 109.883 100.759C109.415 100.845 108.862 101.142 108.224 101.653C107.586 102.121 107.054 102.716 106.629 103.439C106.204 104.12 106.012 104.864 106.055 105.672C106.097 106.438 106.565 107.161 107.458 107.841C107.756 108.096 108.139 108.181 108.607 108.096C109.075 108.011 109.521 107.841 109.947 107.586C110.414 107.288 110.819 106.927 111.159 106.501ZM104.332 118.049C103.737 118.219 103.333 118.432 103.12 118.687C102.44 119.538 101.823 120.835 101.27 122.579C100.76 124.322 100.334 126.173 99.994 128.129C99.6537 130.043 99.4198 131.936 99.2922 133.807C99.1646 135.636 99.1646 137.082 99.2922 138.146C99.3347 138.869 99.5474 139.57 99.9302 140.251C100.313 140.889 100.781 141.463 101.334 141.974C101.929 142.441 102.567 142.803 103.248 143.058C103.971 143.356 104.694 143.483 105.417 143.441C106.31 143.398 107.458 142.845 108.862 141.782C110.308 140.719 111.776 139.443 113.264 137.954C114.548 136.634 115.768 135.282 116.925 133.898C116.875 134.1 116.824 134.304 116.773 134.509C116.433 135.87 116.114 137.167 115.816 138.401C115.476 139.592 115.199 140.634 114.987 141.527C114.732 142.42 114.583 142.994 114.54 143.249C114.455 143.632 114.689 143.824 115.242 143.824C115.752 143.824 116.369 143.696 117.092 143.441C117.815 143.186 118.496 142.867 119.134 142.484C119.772 142.059 120.154 141.633 120.282 141.208C120.41 140.612 120.558 139.996 120.729 139.358C120.899 138.677 121.069 137.912 121.239 137.061C121.452 136.168 121.686 135.19 121.941 134.126C122.196 133.02 122.515 131.744 122.898 130.298C123.621 129.235 124.344 128.214 125.067 127.236C125.833 126.215 126.577 125.322 127.3 124.556C128.065 123.791 128.81 123.195 129.533 122.77C130.256 122.302 130.958 122.068 131.638 122.068C132.191 122.068 132.553 122.387 132.723 123.025C132.893 123.621 132.935 124.408 132.85 125.386C132.765 126.322 132.574 127.385 132.276 128.576C132.021 129.724 131.723 130.894 131.383 132.085C131.085 133.233 130.788 134.318 130.49 135.338C130.192 136.317 129.979 137.104 129.852 137.699C129.639 138.592 129.597 139.443 129.724 140.251C129.852 141.017 130.128 141.697 130.554 142.292C130.979 142.888 131.532 143.356 132.212 143.696C132.935 144.079 133.786 144.27 134.764 144.27C135.7 144.27 136.678 143.973 137.699 143.377C138.762 142.824 139.826 142.101 140.889 141.208C141.952 140.272 142.973 139.251 143.951 138.146C144.93 136.997 145.844 135.87 146.695 134.764C146.71 134.745 146.725 134.725 146.74 134.706C146.596 135.249 146.453 135.778 146.312 136.295C145.802 138.124 145.376 139.592 145.036 140.698C144.781 141.463 144.674 142.059 144.717 142.484C144.717 142.909 144.823 143.207 145.036 143.377C145.206 143.59 145.44 143.696 145.738 143.696C146.035 143.739 146.354 143.76 146.695 143.76C146.95 143.76 147.205 143.739 147.46 143.696C147.673 143.654 147.907 143.59 148.162 143.505C148.46 143.462 148.736 143.377 148.992 143.249C149.332 141.591 149.651 139.996 149.948 138.465C150.289 136.891 150.586 135.487 150.842 134.254C151.139 132.85 151.437 131.51 151.735 130.235L154.287 127.364C155.35 126.173 156.307 125.152 157.158 124.301C157.583 123.918 158.051 123.514 158.561 123.089C159.114 122.664 159.667 122.323 160.22 122.068C160.773 121.771 161.305 121.643 161.815 121.685C162.325 121.685 162.751 121.962 163.091 122.515C163.644 123.323 163.58 124.237 162.9 125.258C162.262 126.236 161.177 127.342 159.646 128.576C159.178 128.491 158.731 128.427 158.306 128.384C157.923 128.342 157.668 128.321 157.541 128.321C157.285 128.321 156.966 128.363 156.584 128.448C156.201 128.533 155.818 128.682 155.435 128.895C155.095 129.107 154.776 129.405 154.478 129.788C154.223 130.171 154.095 130.66 154.095 131.255C154.095 131.978 154.308 132.595 154.733 133.105C155.159 133.573 155.627 133.807 156.137 133.807C156.86 133.807 157.455 133.658 157.923 133.361C158.434 133.02 158.88 132.638 159.263 132.212C159.476 132.553 159.646 132.957 159.773 133.424C159.944 133.85 159.944 134.339 159.773 134.892C159.646 135.36 159.497 135.785 159.327 136.168L158.944 137.189C158.817 137.529 158.689 137.912 158.561 138.337C158.476 138.762 158.434 139.251 158.434 139.804C158.391 141.038 158.689 142.144 159.327 143.122C160.007 144.143 161.092 144.653 162.581 144.653C164.069 144.653 165.558 144.185 167.047 143.249C168.535 142.314 169.981 141.144 171.385 139.741C172.788 138.294 174.107 136.721 175.34 135.019C176.616 133.276 177.744 131.596 178.722 129.979C179.317 129.001 179.36 128.342 178.849 128.002C178.382 127.619 177.786 127.81 177.063 128.576C176.553 129.171 175.83 130.107 174.894 131.383C173.958 132.616 172.937 133.871 171.831 135.147C170.726 136.423 169.535 137.55 168.259 138.528C167.025 139.507 165.834 139.996 164.686 139.996C164.048 139.996 163.623 139.868 163.41 139.613C163.24 139.358 163.134 138.954 163.091 138.401C163.091 137.678 163.282 136.891 163.665 136.04C164.091 135.147 164.324 134.126 164.367 132.978C164.41 132.127 164.197 131.425 163.729 130.873C163.304 130.277 162.793 129.809 162.198 129.469C162.708 129.129 163.325 128.703 164.048 128.193C164.771 127.683 165.452 127.087 166.09 126.407C166.728 125.684 167.259 124.918 167.685 124.11C168.152 123.259 168.408 122.345 168.45 121.366C168.493 120.133 168.216 119.07 167.621 118.177C167.025 117.241 166.047 116.773 164.686 116.773C163.58 116.773 162.177 117.22 160.475 118.113C158.859 119.006 157.413 120.154 156.137 121.558C154.861 122.919 153.798 124.216 152.947 125.45C153.372 123.833 153.84 122.26 154.351 120.728C154.904 119.155 155.456 117.539 156.009 115.88C156.605 114.221 157.2 112.456 157.796 110.584C158.434 108.671 159.05 106.565 159.646 104.268C160.114 102.482 160.411 101.1 160.539 100.121C160.709 99.1007 160.667 98.3776 160.411 97.9523C160.199 97.5695 159.837 97.3569 159.327 97.3143C158.859 97.2718 158.264 97.2931 157.541 97.3781C156.903 97.4632 156.35 97.5695 155.882 97.6971C155.414 97.7822 154.989 97.9098 154.606 98.0799C154.223 98.25 153.925 98.4414 153.713 98.6541C153.84 99.0794 153.883 99.7174 153.84 100.568C153.84 101.376 153.798 102.206 153.713 103.056C153.585 104.077 153.457 105.14 153.33 106.246C153.16 107.267 152.883 108.671 152.5 110.457C152.16 112.201 151.735 114.178 151.224 116.39C150.714 118.559 150.161 120.856 149.566 123.28C149.175 124.962 148.785 126.601 148.395 128.198C147.854 129.004 147.118 130.023 146.184 131.255C145.121 132.616 143.994 133.956 142.803 135.275C141.612 136.593 140.421 137.72 139.23 138.656C138.082 139.592 137.125 140.06 136.359 140.06C135.594 140.06 135.168 139.719 135.083 139.039C135.041 138.358 135.147 137.55 135.402 136.614C135.87 135.168 136.253 133.85 136.551 132.659C136.891 131.425 137.167 130.362 137.38 129.469L138.082 126.662C138.465 125.301 138.614 124.046 138.529 122.898C138.486 121.749 138.273 120.771 137.891 119.963C137.55 119.112 137.061 118.453 136.423 117.985C135.785 117.517 135.062 117.283 134.254 117.283C133.276 117.283 132.319 117.496 131.383 117.921C130.447 118.304 129.554 118.815 128.703 119.453C127.895 120.091 127.13 120.814 126.407 121.622C125.726 122.387 125.109 123.153 124.557 123.918C124.812 123.195 125.024 122.494 125.195 121.813C125.365 121.218 125.535 120.665 125.705 120.154C125.875 119.601 126.024 119.176 126.152 118.878C125.896 118.666 125.599 118.517 125.258 118.432C124.961 118.304 124.663 118.219 124.365 118.177C124.025 118.134 123.685 118.113 123.344 118.113C122.962 118.155 122.6 118.24 122.26 118.368C121.92 118.453 121.579 118.581 121.239 118.751C120.941 118.878 120.644 119.07 120.346 119.325C119.921 120.941 119.538 122.43 119.197 123.791C118.9 125.152 118.645 126.343 118.432 127.364C118.393 127.545 118.355 127.724 118.317 127.901C117.769 128.664 116.999 129.633 116.008 130.809C114.859 132.127 113.604 133.446 112.243 134.764C110.925 136.04 109.606 137.146 108.288 138.082C107.012 139.017 105.949 139.485 105.098 139.485C104.8 139.485 104.524 139.4 104.269 139.23C104.013 139.017 103.779 138.656 103.567 138.146C103.354 137.72 103.29 137.104 103.375 136.295C103.46 135.487 103.609 134.637 103.822 133.743C104.077 132.808 104.354 131.872 104.651 130.936C104.949 129.958 105.204 129.086 105.417 128.321C105.63 127.555 105.949 126.577 106.374 125.386C106.799 124.152 107.203 122.961 107.586 121.813C107.969 120.665 108.288 119.665 108.543 118.815C108.798 117.964 108.905 117.517 108.862 117.475C108.777 117.432 108.458 117.432 107.905 117.475C107.395 117.475 106.82 117.539 106.182 117.666C105.545 117.751 104.928 117.879 104.332 118.049ZM179.998 120.282C181.359 120.75 183.124 120.984 185.293 120.984C185.974 120.984 186.633 120.962 187.271 120.92C187.951 120.877 188.589 120.792 189.185 120.665C188.674 123.217 188.058 125.854 187.335 128.576C186.612 131.255 185.761 133.935 184.783 136.614C184.23 138.018 183.719 139.273 183.251 140.379C182.784 141.484 182.316 142.463 181.848 143.313C181.21 143.101 180.551 142.909 179.87 142.739C179.232 142.611 178.552 142.548 177.829 142.548C175.872 142.548 174.277 142.76 173.044 143.186C171.81 143.654 170.853 144.206 170.173 144.844C169.45 145.482 168.961 146.142 168.705 146.822C168.45 147.545 168.301 148.162 168.259 148.672C168.174 150.076 168.578 151.182 169.471 151.99C170.364 152.841 171.555 153.266 173.044 153.266C174.915 153.266 176.616 152.883 178.148 152.118C179.679 151.352 181.082 150.352 182.358 149.119C183.294 149.757 184.294 150.437 185.357 151.161C186.463 151.926 187.632 152.628 188.866 153.266C190.099 153.904 191.418 154.436 192.821 154.861C194.225 155.329 195.735 155.563 197.351 155.563C198.882 155.563 200.158 155.18 201.179 154.414C202.2 153.649 202.987 152.756 203.54 151.735C204.092 150.714 204.411 149.693 204.496 148.672C204.624 147.652 204.539 146.886 204.241 146.376C203.433 147.269 202.561 147.949 201.626 148.417C200.69 148.928 199.797 149.289 198.946 149.502C197.968 149.757 196.968 149.906 195.947 149.948C194.969 149.948 194.033 149.799 193.14 149.502C192.29 149.204 191.439 148.821 190.588 148.353C189.738 147.928 188.887 147.439 188.036 146.886C187.228 146.333 186.42 145.801 185.612 145.291C186.931 143.42 188.036 141.463 188.93 139.422C189.865 137.38 190.631 135.53 191.226 133.871C191.907 132.085 192.587 129.83 193.268 127.108C193.991 124.344 194.714 121.558 195.437 118.751C197.564 117.815 199.478 116.624 201.179 115.178C202.923 113.732 204.411 112.201 205.645 110.584C206.878 108.968 207.835 107.331 208.516 105.672C209.196 104.013 209.537 102.482 209.537 101.078C209.537 100.44 209.494 99.7599 209.409 99.0369C209.366 98.2713 209.175 97.5695 208.835 96.9315C208.537 96.2935 208.069 95.7619 207.431 95.3366C206.836 94.9112 206.006 94.6986 204.943 94.6986C203.497 94.6986 202.221 94.9112 201.115 95.3366C200.009 95.7619 198.989 96.3786 198.053 97.1867C197.16 97.9523 196.33 98.9093 195.565 100.058C194.842 101.164 194.14 102.418 193.459 103.822C192.821 105.098 192.247 106.757 191.737 108.798C191.269 110.84 190.78 113.136 190.269 115.688C189.078 116.071 187.866 116.369 186.633 116.582C185.442 116.794 184.208 116.901 182.932 116.901C182.252 116.901 181.55 116.837 180.827 116.709C180.232 116.624 179.572 116.475 178.849 116.263C178.169 116.007 177.531 115.646 176.935 115.178C176.638 115.901 176.574 116.56 176.744 117.156C176.914 117.751 177.106 118.198 177.318 118.496C177.786 119.219 178.679 119.814 179.998 120.282Z" fill="#BB004F"/>
<path d="M221.722 129.788C221.424 130.936 221.169 131.936 220.957 132.786C220.914 132.999 220.723 133.339 220.382 133.807C220.085 134.275 219.681 134.786 219.17 135.338C218.702 135.891 218.149 136.423 217.511 136.933C216.916 137.444 216.299 137.869 215.661 138.209C215.066 138.507 214.47 138.677 213.875 138.72C213.279 138.72 212.748 138.486 212.28 138.018C212.025 137.763 211.855 137.231 211.77 136.423C211.684 135.572 211.706 134.594 211.833 133.488C212.003 132.382 212.28 131.213 212.663 129.979C213.046 128.703 213.556 127.512 214.194 126.407C215.725 123.727 217.065 121.898 218.213 120.92C219.404 119.899 220.234 119.58 220.701 119.963C220.829 120.133 220.914 120.367 220.957 120.665C220.999 120.92 220.978 121.281 220.893 121.749C220.85 122.175 220.659 122.728 220.319 123.408C220.659 123.323 220.999 123.259 221.339 123.217C221.68 123.174 221.956 123.11 222.169 123.025C222.424 122.94 222.658 122.876 222.871 122.834C223.041 122.791 223.062 123.132 222.934 123.855C222.849 124.535 222.7 125.407 222.488 126.47C222.275 127.534 222.02 128.64 221.722 129.788Z" fill="#BB004F"/>
<mask id="path-2-outside-1_391:1783" maskUnits="userSpaceOnUse" x="53.5244" y="91.4434" width="276" height="68" fill="black">
<rect fill="white" x="53.5244" y="91.4434" width="276" height="68"/>
<path d="M58.5244 151.799C58.6945 151.671 58.971 151.458 59.3538 151.161C59.6941 150.863 60.1194 150.31 60.6298 149.502C61.0976 148.694 61.6293 147.524 62.2247 145.993C62.8202 144.462 63.4369 142.378 64.0749 139.741C64.4152 138.337 64.8618 136.551 65.4147 134.381C65.9676 132.212 66.5631 129.894 67.2011 127.427C67.8816 124.96 68.5621 122.43 69.2426 119.835C69.9231 117.198 70.5824 114.71 71.2204 112.371C71.8584 109.989 72.4326 107.841 72.9429 105.927C73.4533 104.013 73.8574 102.525 74.1551 101.461C73.347 101.972 72.5602 102.546 71.7946 103.184C71.1141 103.737 70.391 104.375 69.6254 105.098C68.8598 105.778 68.1155 106.501 67.3925 107.267C66.8395 106.799 66.4142 106.289 66.1165 105.736C65.9463 105.481 65.7975 105.204 65.6699 104.906C65.4147 104.268 65.2871 103.609 65.2871 102.929C65.2871 102.248 65.8187 101.546 66.8821 100.823C67.435 100.44 68.2644 99.8875 69.3702 99.1645C70.5186 98.4414 71.9222 97.7396 73.5809 97.0591C75.2397 96.3361 77.1749 95.7193 79.3866 95.2089C81.5983 94.6986 84.0439 94.4434 86.7235 94.4434C89.403 94.4434 91.5509 94.975 93.1672 96.0383C94.8259 97.1016 96.0807 98.3989 96.9313 99.9301C97.8245 101.461 98.3987 103.077 98.6539 104.779C98.9091 106.48 98.9729 107.969 98.8453 109.245C98.5901 111.627 97.8245 114.115 96.5485 116.709C95.2725 119.304 93.5074 121.707 91.2532 123.918C88.999 126.088 86.2556 127.938 83.0232 129.469C79.7907 131 76.0904 131.872 71.9222 132.085C71.5819 133.701 71.2416 135.36 70.9014 137.061C70.5611 138.762 70.1996 140.442 69.8168 142.101C69.434 143.717 69.03 145.227 68.6046 146.631C68.2218 148.077 67.8178 149.31 67.3925 150.331C66.9671 151.437 66.4142 152.309 65.7337 152.947C65.0532 153.627 63.9686 153.968 62.4799 153.968C61.7144 153.968 61.0126 153.776 60.3746 153.393C59.6941 153.011 59.0773 152.479 58.5244 151.799ZM73.6447 122.706C73.5171 123.387 73.347 124.28 73.1343 125.386C72.9642 126.449 72.7516 127.661 72.4964 129.022C73.6447 128.852 74.9207 128.554 76.3243 128.129C77.7279 127.661 79.1314 127.045 80.535 126.279C81.9386 125.513 83.2996 124.599 84.6181 123.536C85.9792 122.43 87.2126 121.175 88.3185 119.771C89.4243 118.325 90.3388 116.709 91.0618 114.923C91.8274 113.094 92.3165 111.074 92.5292 108.862C92.7419 106.735 92.6143 104.97 92.1464 103.567C91.7211 102.12 91.0831 100.972 90.2324 100.121C89.3818 99.2283 88.4035 98.6115 87.2977 98.2713C86.1918 97.8885 85.086 97.6971 83.9801 97.6971C82.9168 97.6971 81.8748 97.846 80.854 98.1437C79.8332 98.4414 78.8124 98.8242 77.7917 99.2921C77.9193 99.3346 78.0681 99.4409 78.2383 99.6111C78.4934 99.8663 78.6848 100.228 78.8124 100.696C77.7917 104.821 76.941 108.266 76.2605 111.031C75.6225 113.796 75.1121 116.05 74.7293 117.794C74.2615 119.835 73.8999 121.473 73.6447 122.706ZM111.924 105.098C111.796 105.566 111.541 106.033 111.158 106.501C110.818 106.927 110.414 107.288 109.946 107.586C109.521 107.841 109.074 108.011 108.606 108.096C108.139 108.181 107.756 108.096 107.458 107.841C106.565 107.161 106.097 106.438 106.055 105.672C106.012 104.864 106.203 104.12 106.629 103.439C107.054 102.716 107.586 102.12 108.224 101.653C108.862 101.142 109.415 100.845 109.882 100.759C110.35 100.674 110.733 100.781 111.031 101.078C111.371 101.334 111.626 101.695 111.796 102.163C111.967 102.588 112.052 103.077 112.052 103.63C112.094 104.183 112.052 104.672 111.924 105.098ZM103.12 118.687C103.332 118.432 103.737 118.219 104.332 118.049C104.927 117.879 105.544 117.751 106.182 117.666C106.82 117.539 107.394 117.475 107.905 117.475C108.458 117.432 108.777 117.432 108.862 117.475C108.904 117.517 108.798 117.964 108.543 118.815C108.288 119.665 107.969 120.665 107.586 121.813C107.203 122.961 106.799 124.152 106.374 125.386C105.948 126.577 105.629 127.555 105.417 128.321C105.204 129.086 104.949 129.958 104.651 130.936C104.353 131.872 104.077 132.808 103.822 133.743C103.609 134.637 103.46 135.487 103.375 136.295C103.29 137.104 103.354 137.72 103.566 138.146C103.779 138.656 104.013 139.017 104.268 139.23C104.523 139.4 104.8 139.485 105.098 139.485C105.948 139.485 107.012 139.017 108.288 138.082C109.606 137.146 110.925 136.04 112.243 134.764C113.604 133.446 114.859 132.127 116.007 130.809C117.156 129.448 118.006 128.363 118.559 127.555C118.899 127.13 119.24 126.853 119.58 126.726C119.963 126.598 120.26 126.619 120.473 126.789C120.728 126.959 120.856 127.236 120.856 127.619C120.898 128.002 120.771 128.448 120.473 128.959C119.793 130.149 118.793 131.574 117.475 133.233C116.156 134.849 114.752 136.423 113.264 137.954C111.775 139.443 110.308 140.719 108.862 141.782C107.458 142.845 106.31 143.398 105.417 143.441C104.694 143.483 103.97 143.356 103.247 143.058C102.567 142.803 101.929 142.441 101.333 141.973C100.781 141.463 100.313 140.889 99.9299 140.251C99.5471 139.57 99.3344 138.869 99.2919 138.146C99.1643 137.082 99.1643 135.636 99.2919 133.807C99.4195 131.936 99.6534 130.043 99.9937 128.129C100.334 126.173 100.759 124.322 101.27 122.579C101.823 120.835 102.439 119.538 103.12 118.687ZM134.764 144.27C133.786 144.27 132.935 144.079 132.212 143.696C131.532 143.356 130.979 142.888 130.553 142.292C130.128 141.697 129.852 141.017 129.724 140.251C129.596 139.443 129.639 138.592 129.852 137.699C129.979 137.104 130.192 136.317 130.489 135.338C130.787 134.318 131.085 133.233 131.383 132.085C131.723 130.894 132.021 129.724 132.276 128.576C132.574 127.385 132.765 126.322 132.85 125.386C132.935 124.408 132.893 123.621 132.722 123.025C132.552 122.387 132.191 122.068 131.638 122.068C130.957 122.068 130.256 122.302 129.533 122.77C128.809 123.195 128.065 123.791 127.3 124.556C126.576 125.322 125.832 126.215 125.067 127.236C124.344 128.214 123.62 129.235 122.897 130.298C122.515 131.744 122.196 133.02 121.94 134.126C121.685 135.19 121.451 136.168 121.239 137.061C121.069 137.912 120.898 138.677 120.728 139.358C120.558 139.996 120.409 140.612 120.282 141.208C120.154 141.633 119.771 142.059 119.133 142.484C118.495 142.867 117.815 143.186 117.092 143.441C116.369 143.696 115.752 143.824 115.242 143.824C114.689 143.824 114.455 143.632 114.54 143.249C114.582 142.994 114.731 142.42 114.986 141.527C115.199 140.634 115.476 139.592 115.816 138.401C116.113 137.167 116.432 135.87 116.773 134.509C117.113 133.148 117.432 131.851 117.73 130.617C117.942 129.639 118.176 128.554 118.432 127.364C118.644 126.343 118.899 125.152 119.197 123.791C119.537 122.43 119.92 120.941 120.345 119.325C120.643 119.07 120.941 118.878 121.239 118.751C121.579 118.581 121.919 118.453 122.259 118.368C122.6 118.24 122.961 118.155 123.344 118.113C123.684 118.113 124.025 118.134 124.365 118.177C124.663 118.219 124.96 118.304 125.258 118.432C125.598 118.517 125.896 118.666 126.151 118.878C126.024 119.176 125.875 119.601 125.705 120.154C125.534 120.665 125.364 121.218 125.194 121.813C125.024 122.494 124.811 123.195 124.556 123.918C125.109 123.153 125.726 122.387 126.406 121.622C127.129 120.814 127.895 120.09 128.703 119.453C129.554 118.815 130.447 118.304 131.383 117.921C132.318 117.496 133.275 117.283 134.254 117.283C135.062 117.283 135.785 117.517 136.423 117.985C137.061 118.453 137.55 119.112 137.89 119.963C138.273 120.771 138.486 121.749 138.528 122.898C138.613 124.046 138.464 125.301 138.082 126.662L137.38 129.469C137.167 130.362 136.891 131.425 136.55 132.659C136.253 133.85 135.87 135.168 135.402 136.614C135.147 137.55 135.04 138.358 135.083 139.039C135.168 139.719 135.593 140.06 136.359 140.06C137.125 140.06 138.082 139.592 139.23 138.656C140.421 137.72 141.612 136.593 142.803 135.275C143.994 133.956 145.121 132.616 146.184 131.255C147.247 129.852 148.055 128.725 148.608 127.874C148.991 127.321 149.353 126.959 149.693 126.789C150.033 126.619 150.288 126.598 150.459 126.726C150.671 126.853 150.778 127.151 150.778 127.619C150.778 128.044 150.607 128.597 150.267 129.278C149.969 129.873 149.502 130.66 148.864 131.638C148.268 132.616 147.545 133.658 146.694 134.764C145.844 135.87 144.929 136.997 143.951 138.146C142.973 139.251 141.952 140.272 140.889 141.208C139.825 142.101 138.762 142.824 137.699 143.377C136.678 143.973 135.7 144.27 134.764 144.27ZM178.721 129.979C177.743 131.596 176.616 133.276 175.34 135.019C174.107 136.721 172.788 138.294 171.385 139.741C169.981 141.144 168.535 142.314 167.046 143.249C165.558 144.185 164.069 144.653 162.58 144.653C161.092 144.653 160.007 144.143 159.327 143.122C158.689 142.144 158.391 141.038 158.433 139.804C158.433 139.251 158.476 138.762 158.561 138.337C158.689 137.912 158.816 137.529 158.944 137.189C159.071 136.848 159.199 136.508 159.327 136.168C159.497 135.785 159.646 135.36 159.773 134.892C159.943 134.339 159.943 133.85 159.773 133.424C159.646 132.957 159.475 132.553 159.263 132.212C158.88 132.638 158.433 133.02 157.923 133.361C157.455 133.658 156.86 133.807 156.137 133.807C155.626 133.807 155.158 133.573 154.733 133.105C154.308 132.595 154.095 131.978 154.095 131.255C154.095 130.66 154.223 130.171 154.478 129.788C154.776 129.405 155.095 129.107 155.435 128.895C155.818 128.682 156.2 128.533 156.583 128.448C156.966 128.363 157.285 128.321 157.54 128.321C157.668 128.321 157.923 128.342 158.306 128.384C158.731 128.427 159.178 128.491 159.646 128.576C161.177 127.342 162.261 126.236 162.899 125.258C163.58 124.237 163.644 123.323 163.091 122.515C162.75 121.962 162.325 121.685 161.815 121.685C161.304 121.643 160.773 121.771 160.22 122.068C159.667 122.323 159.114 122.664 158.561 123.089C158.051 123.514 157.583 123.918 157.157 124.301C156.307 125.152 155.35 126.173 154.286 127.364C153.266 128.512 152.415 129.469 151.735 130.235C151.437 131.51 151.139 132.85 150.841 134.254C150.586 135.487 150.288 136.891 149.948 138.465C149.65 139.996 149.331 141.591 148.991 143.249C148.736 143.377 148.459 143.462 148.162 143.505C147.907 143.59 147.673 143.654 147.46 143.696C147.205 143.739 146.95 143.76 146.694 143.76C146.354 143.76 146.035 143.739 145.737 143.696C145.44 143.696 145.206 143.59 145.036 143.377C144.823 143.207 144.717 142.909 144.717 142.484C144.674 142.059 144.78 141.463 145.036 140.698C145.376 139.592 145.801 138.124 146.312 136.295C146.822 134.424 147.354 132.382 147.907 130.171C148.459 127.959 149.012 125.662 149.565 123.28C150.161 120.856 150.714 118.559 151.224 116.39C151.735 114.178 152.16 112.201 152.5 110.457C152.883 108.67 153.159 107.267 153.329 106.246C153.457 105.14 153.585 104.077 153.712 103.056C153.797 102.206 153.84 101.376 153.84 100.568C153.882 99.7174 153.84 99.0794 153.712 98.6541C153.925 98.4414 154.223 98.25 154.605 98.0799C154.988 97.9098 155.414 97.7822 155.881 97.6971C156.349 97.5695 156.902 97.4632 157.54 97.3781C158.263 97.293 158.859 97.2718 159.327 97.3143C159.837 97.3568 160.198 97.5695 160.411 97.9523C160.666 98.3776 160.709 99.1007 160.539 100.121C160.411 101.1 160.113 102.482 159.646 104.268C159.05 106.565 158.433 108.67 157.795 110.584C157.2 112.456 156.604 114.221 156.009 115.88C155.456 117.539 154.903 119.155 154.35 120.728C153.84 122.26 153.372 123.833 152.947 125.45C153.797 124.216 154.861 122.919 156.137 121.558C157.413 120.154 158.859 119.006 160.475 118.113C162.176 117.22 163.58 116.773 164.686 116.773C166.047 116.773 167.025 117.241 167.62 118.177C168.216 119.07 168.492 120.133 168.45 121.366C168.407 122.345 168.152 123.259 167.684 124.11C167.259 124.918 166.727 125.684 166.089 126.407C165.451 127.087 164.771 127.683 164.048 128.193C163.325 128.703 162.708 129.129 162.198 129.469C162.793 129.809 163.303 130.277 163.729 130.872C164.197 131.425 164.409 132.127 164.367 132.978C164.324 134.126 164.09 135.147 163.665 136.04C163.282 136.891 163.091 137.678 163.091 138.401C163.133 138.954 163.24 139.358 163.41 139.613C163.622 139.868 164.048 139.996 164.686 139.996C165.834 139.996 167.025 139.507 168.258 138.528C169.534 137.55 170.725 136.423 171.831 135.147C172.937 133.871 173.958 132.616 174.893 131.383C175.829 130.107 176.552 129.171 177.063 128.576C177.786 127.81 178.381 127.619 178.849 128.002C179.359 128.342 179.317 129.001 178.721 129.979ZM185.293 120.984C183.124 120.984 181.358 120.75 179.997 120.282C178.679 119.814 177.786 119.219 177.318 118.496C177.105 118.198 176.914 117.751 176.744 117.156C176.574 116.56 176.637 115.901 176.935 115.178C177.53 115.646 178.168 116.007 178.849 116.263C179.572 116.475 180.231 116.624 180.827 116.709C181.55 116.837 182.252 116.901 182.932 116.901C184.208 116.901 185.442 116.794 186.632 116.582C187.866 116.369 189.078 116.071 190.269 115.688C190.779 113.136 191.269 110.84 191.736 108.798C192.247 106.757 192.821 105.098 193.459 103.822C194.139 102.418 194.841 101.164 195.564 100.058C196.33 98.9093 197.159 97.9523 198.052 97.1867C198.988 96.3786 200.009 95.7619 201.115 95.3365C202.221 94.9112 203.497 94.6986 204.943 94.6986C206.006 94.6986 206.835 94.9112 207.431 95.3365C208.069 95.7619 208.537 96.2935 208.834 96.9315C209.175 97.5695 209.366 98.2713 209.409 99.0369C209.494 99.7599 209.536 100.44 209.536 101.078C209.536 102.482 209.196 104.013 208.515 105.672C207.835 107.331 206.878 108.968 205.645 110.584C204.411 112.201 202.922 113.732 201.179 115.178C199.477 116.624 197.563 117.815 195.437 118.751C194.714 121.558 193.991 124.344 193.268 127.108C192.587 129.83 191.907 132.085 191.226 133.871C190.631 135.53 189.865 137.38 188.929 139.422C188.036 141.463 186.93 143.42 185.612 145.291C186.42 145.801 187.228 146.333 188.036 146.886C188.887 147.439 189.737 147.928 190.588 148.353C191.439 148.821 192.289 149.204 193.14 149.502C194.033 149.799 194.969 149.948 195.947 149.948C196.968 149.906 197.967 149.757 198.946 149.502C199.796 149.289 200.689 148.928 201.625 148.417C202.561 147.949 203.433 147.269 204.241 146.376C204.539 146.886 204.624 147.652 204.496 148.672C204.411 149.693 204.092 150.714 203.539 151.735C202.986 152.755 202.199 153.649 201.179 154.414C200.158 155.18 198.882 155.563 197.351 155.563C195.734 155.563 194.225 155.329 192.821 154.861C191.417 154.436 190.099 153.904 188.865 153.266C187.632 152.628 186.462 151.926 185.356 151.161C184.293 150.437 183.294 149.757 182.358 149.119C181.082 150.352 179.678 151.352 178.147 152.118C176.616 152.883 174.915 153.266 173.043 153.266C171.555 153.266 170.364 152.841 169.471 151.99C168.577 151.182 168.173 150.076 168.258 148.672C168.301 148.162 168.45 147.545 168.705 146.822C168.96 146.142 169.449 145.482 170.172 144.844C170.853 144.206 171.81 143.654 173.043 143.186C174.277 142.76 175.872 142.548 177.828 142.548C178.551 142.548 179.232 142.611 179.87 142.739C180.55 142.909 181.21 143.101 181.848 143.313C182.315 142.463 182.783 141.484 183.251 140.379C183.719 139.273 184.229 138.018 184.782 136.614C185.761 133.935 186.611 131.255 187.334 128.576C188.057 125.854 188.674 123.217 189.184 120.665C188.589 120.792 187.951 120.877 187.27 120.92C186.632 120.962 185.973 120.984 185.293 120.984ZM174.702 149.821C175.255 149.608 175.893 149.395 176.616 149.183C177.339 148.97 178.168 148.375 179.104 147.396C178.466 147.184 177.977 147.077 177.637 147.077C176.106 147.077 175 147.29 174.319 147.715C173.596 148.183 173.235 148.63 173.235 149.055C173.235 149.353 173.362 149.566 173.618 149.693C173.873 149.863 174.234 149.906 174.702 149.821ZM198.818 105.417C198.605 106.055 198.329 106.99 197.989 108.224C197.648 109.457 197.287 110.882 196.904 112.498C199.201 111.01 201.03 109.308 202.391 107.395C203.794 105.481 204.496 103.567 204.496 101.653C204.496 100.504 204.156 99.9301 203.475 99.9301C202.88 99.9301 202.114 100.398 201.179 101.334C200.243 102.227 199.456 103.588 198.818 105.417ZM239.649 129.979C239.054 130.83 238.288 131.893 237.353 133.169C236.417 134.403 235.439 135.657 234.418 136.933C233.44 138.167 232.461 139.315 231.483 140.379C230.547 141.399 229.76 142.122 229.122 142.548C228.697 142.803 228.208 143.016 227.655 143.186C227.102 143.356 226.528 143.462 225.933 143.505C225.38 143.547 224.848 143.505 224.338 143.377C223.827 143.292 223.381 143.122 222.998 142.867C222.615 142.569 222.296 142.144 222.041 141.591C221.828 141.123 221.615 140.506 221.403 139.741C221.233 138.975 221.169 138.018 221.211 136.87C220.191 138.571 219.064 139.889 217.83 140.825C216.597 141.718 215.427 142.378 214.321 142.803C213.045 143.271 211.769 143.547 210.493 143.632C209.898 143.632 209.26 143.42 208.579 142.994C207.899 142.611 207.325 141.995 206.857 141.144C206.389 140.251 206.091 139.124 205.964 137.763C205.836 136.359 206.006 134.7 206.474 132.786C207.069 130.192 208.005 127.831 209.281 125.705C210.6 123.578 212.024 121.771 213.556 120.282C215.087 118.751 216.597 117.602 218.085 116.837C219.574 116.071 220.807 115.731 221.786 115.816C222.934 116.029 223.87 116.369 224.593 116.837C225.188 117.262 225.571 117.9 225.741 118.751C225.954 119.559 225.614 120.643 224.72 122.004C225.316 121.877 225.805 121.792 226.188 121.749C226.613 121.707 226.932 121.685 227.145 121.685C227.4 121.685 227.57 121.707 227.655 121.749C227.698 121.834 227.719 122.026 227.719 122.323C227.719 122.579 227.655 123.068 227.528 123.791C227.4 124.514 227.209 125.492 226.953 126.726C226.698 127.959 226.358 129.554 225.933 131.51C225.847 131.893 225.762 132.255 225.677 132.595C225.635 132.893 225.571 133.212 225.486 133.552C225.443 133.85 225.38 134.211 225.295 134.637C225.209 135.062 225.103 135.594 224.976 136.232C224.933 136.614 224.912 137.04 224.912 137.508C224.954 137.933 225.039 138.337 225.167 138.72C225.295 139.103 225.486 139.422 225.741 139.677C226.039 139.889 226.443 139.996 226.953 139.996C227.379 139.996 227.932 139.741 228.612 139.23C229.293 138.677 230.016 137.997 230.781 137.189C231.547 136.338 232.334 135.423 233.142 134.445C233.992 133.424 234.779 132.446 235.502 131.51C236.225 130.575 236.863 129.745 237.416 129.022C238.012 128.299 238.437 127.768 238.692 127.427C239.033 127.045 239.373 126.832 239.713 126.789C240.053 126.704 240.309 126.789 240.479 127.045C240.649 127.3 240.67 127.683 240.542 128.193C240.457 128.703 240.16 129.299 239.649 129.979ZM220.956 132.786C221.169 131.936 221.424 130.936 221.722 129.788C222.02 128.64 222.275 127.534 222.487 126.47C222.7 125.407 222.849 124.535 222.934 123.855C223.062 123.132 223.04 122.791 222.87 122.834C222.658 122.876 222.424 122.94 222.168 123.025C221.956 123.11 221.679 123.174 221.339 123.217C220.999 123.259 220.658 123.323 220.318 123.408C220.658 122.728 220.85 122.175 220.892 121.749C220.977 121.281 220.999 120.92 220.956 120.665C220.914 120.367 220.829 120.133 220.701 119.963C220.233 119.58 219.404 119.899 218.213 120.92C217.064 121.898 215.725 123.727 214.194 126.407C213.556 127.512 213.045 128.703 212.662 129.979C212.28 131.213 212.003 132.382 211.833 133.488C211.705 134.594 211.684 135.572 211.769 136.423C211.854 137.231 212.024 137.763 212.28 138.018C212.747 138.486 213.279 138.72 213.875 138.72C214.47 138.677 215.065 138.507 215.661 138.209C216.299 137.869 216.916 137.444 217.511 136.933C218.149 136.423 218.702 135.891 219.17 135.338C219.68 134.785 220.084 134.275 220.382 133.807C220.722 133.339 220.914 132.999 220.956 132.786ZM243.286 143.696C241.67 143.696 240.351 143.441 239.33 142.93C238.31 142.42 237.501 141.803 236.906 141.08C236.353 140.315 235.949 139.507 235.694 138.656C235.481 137.763 235.375 136.955 235.375 136.232C235.375 134.956 235.481 133.616 235.694 132.212C235.906 130.766 236.162 129.448 236.459 128.257C236.757 127.023 237.012 125.981 237.225 125.131C237.48 124.28 237.65 123.748 237.735 123.536C238.118 122.302 238.607 121.239 239.203 120.346C239.841 119.41 240.713 118.772 241.818 118.432C242.244 118.347 242.69 118.262 243.158 118.177C243.541 118.134 243.924 118.113 244.307 118.113C244.732 118.113 245.115 118.177 245.455 118.304C244.307 121.239 243.392 123.684 242.712 125.641C242.074 127.597 241.585 129.192 241.244 130.426C240.861 131.829 240.628 132.957 240.542 133.807C240.33 135.721 240.5 137.167 241.053 138.146C241.606 139.124 242.733 139.613 244.434 139.613C245.54 139.613 246.603 139.209 247.624 138.401C248.645 137.55 249.581 136.466 250.431 135.147C250.304 134.466 250.24 133.765 250.24 133.042C250.24 131.681 250.346 130.362 250.559 129.086C250.814 127.768 251.091 126.555 251.388 125.45C251.729 124.301 252.069 123.28 252.409 122.387C252.792 121.494 253.111 120.792 253.366 120.282C253.834 119.261 254.259 118.644 254.642 118.432C255.025 118.177 255.642 118.028 256.492 117.985C256.832 117.943 257.109 117.943 257.322 117.985C257.577 117.985 257.789 118.006 257.96 118.049C258.47 118.177 258.725 118.432 258.725 118.815C258.725 119.495 258.683 120.516 258.598 121.877C258.512 123.238 258.257 124.641 257.832 126.088C257.534 127.278 257.237 128.299 256.939 129.15C256.684 129.958 256.428 130.66 256.173 131.255C255.918 131.808 255.663 132.276 255.408 132.659C255.152 132.999 254.918 133.318 254.706 133.616C254.791 134.892 254.897 135.913 255.025 136.678C255.152 137.444 255.301 138.039 255.471 138.465C255.684 138.847 255.918 139.124 256.173 139.294C256.471 139.422 256.79 139.485 257.13 139.485C257.726 139.485 258.427 139.209 259.236 138.656C260.044 138.06 260.873 137.337 261.724 136.487C262.617 135.594 263.489 134.637 264.339 133.616C265.233 132.553 266.041 131.553 266.764 130.617C267.487 129.682 268.104 128.873 268.614 128.193C269.124 127.47 269.443 127.023 269.571 126.853C269.869 126.47 270.145 126.236 270.4 126.151C270.698 126.066 270.932 126.109 271.102 126.279C271.272 126.407 271.357 126.641 271.357 126.981C271.4 127.278 271.315 127.619 271.102 128.002C270.251 129.618 269.188 131.34 267.912 133.169C266.679 134.956 265.339 136.614 263.893 138.146C262.489 139.677 261.064 140.953 259.618 141.973C258.172 142.994 256.811 143.505 255.535 143.505C254.387 143.505 253.472 143.122 252.792 142.356C252.154 141.548 251.601 140.4 251.133 138.911C250.155 140.442 249.006 141.633 247.688 142.484C246.369 143.292 244.902 143.696 243.286 143.696ZM263.574 142.356C263.276 142.824 262.957 143.122 262.617 143.249C262.234 143.42 261.915 143.441 261.66 143.313C261.362 143.228 261.171 143.016 261.086 142.675C261.001 142.335 261.086 141.91 261.341 141.399C261.468 141.144 261.766 140.57 262.234 139.677C262.659 138.784 263.191 137.72 263.829 136.487C264.425 135.211 265.084 133.85 265.807 132.404C266.53 130.915 267.21 129.511 267.848 128.193C268.529 126.874 269.146 125.705 269.699 124.684C270.251 123.621 270.656 122.855 270.911 122.387C270.443 121.962 270.124 121.664 269.954 121.494C269.784 121.281 269.656 120.856 269.571 120.218C269.486 119.665 269.613 118.942 269.954 118.049C270.294 117.156 270.741 116.305 271.294 115.497C271.846 114.646 272.463 113.923 273.144 113.328C273.824 112.732 274.483 112.435 275.121 112.435C276.312 112.435 277.142 112.817 277.61 113.583C278.12 114.349 278.418 115.135 278.503 115.944C278.588 116.496 278.545 117.198 278.375 118.049C278.205 118.9 277.886 119.665 277.418 120.346C277.546 120.431 277.716 120.537 277.929 120.665C278.141 120.75 278.482 120.792 278.949 120.792C279.63 120.792 280.098 120.75 280.353 120.665C280.651 120.58 281.097 120.537 281.693 120.537C282.416 120.537 283.011 120.728 283.479 121.111C283.947 121.452 284.33 121.898 284.627 122.451C284.925 122.961 285.138 123.536 285.265 124.174C285.436 124.769 285.542 125.322 285.584 125.832C285.712 126.896 285.436 128.002 284.755 129.15C284.075 130.298 283.245 131.553 282.267 132.914C281.671 133.765 281.076 134.722 280.481 135.785C279.885 136.848 279.63 137.805 279.715 138.656C279.8 139.209 279.949 139.655 280.162 139.996C280.374 140.336 280.97 140.506 281.948 140.506C282.671 140.506 283.458 140.251 284.308 139.741C285.202 139.188 286.095 138.507 286.988 137.699C287.924 136.848 288.838 135.934 289.731 134.956C290.625 133.935 291.454 132.957 292.22 132.021C292.985 131.043 293.623 130.171 294.133 129.405C294.686 128.64 295.09 128.087 295.346 127.746C295.558 127.406 295.835 127.172 296.175 127.045C296.515 126.917 296.813 126.917 297.068 127.045C297.323 127.172 297.472 127.427 297.515 127.81C297.6 128.193 297.451 128.703 297.068 129.341C296.813 129.767 296.366 130.447 295.728 131.383C295.133 132.319 294.389 133.361 293.496 134.509C292.645 135.657 291.688 136.848 290.625 138.082C289.561 139.273 288.434 140.379 287.243 141.399C286.095 142.378 284.925 143.186 283.734 143.824C282.586 144.462 281.48 144.781 280.417 144.781C279.311 144.781 278.396 144.568 277.673 144.143C276.95 143.717 276.355 143.207 275.887 142.611C275.462 141.973 275.143 141.293 274.93 140.57C274.76 139.804 274.696 139.103 274.739 138.465C274.781 137.954 274.909 137.423 275.121 136.87C275.377 136.274 275.653 135.679 275.951 135.083C276.291 134.445 276.631 133.829 276.972 133.233C277.354 132.595 277.695 131.978 277.992 131.383C278.715 130.149 279.29 129.107 279.715 128.257C280.183 127.364 280.417 126.619 280.417 126.024C280.417 125.641 280.332 125.301 280.162 125.003C279.991 124.705 279.715 124.556 279.332 124.556C279.077 124.556 278.886 124.578 278.758 124.62C278.673 124.62 278.567 124.62 278.439 124.62C278.354 124.62 278.205 124.641 277.992 124.684C277.822 124.684 277.546 124.684 277.163 124.684C276.61 124.684 276.142 124.599 275.759 124.429C275.377 124.259 275.015 124.131 274.675 124.046C274.505 124.344 274.122 124.982 273.526 125.96C272.931 126.938 272.229 128.087 271.421 129.405C270.656 130.724 269.826 132.106 268.933 133.552C268.082 134.998 267.274 136.359 266.509 137.635C265.743 138.869 265.105 139.932 264.595 140.825C264.042 141.676 263.701 142.186 263.574 142.356ZM325.267 129.979C324.672 130.83 323.906 131.893 322.971 133.169C322.035 134.403 321.057 135.657 320.036 136.933C319.058 138.167 318.079 139.315 317.101 140.379C316.165 141.399 315.378 142.122 314.741 142.548C314.315 142.803 313.826 143.016 313.273 143.186C312.72 143.356 312.146 143.462 311.551 143.505C310.998 143.547 310.466 143.505 309.956 143.377C309.445 143.292 308.999 143.122 308.616 142.867C308.233 142.569 307.914 142.144 307.659 141.591C307.446 141.123 307.234 140.506 307.021 139.741C306.851 138.975 306.787 138.018 306.829 136.87C305.809 138.571 304.682 139.889 303.448 140.825C302.215 141.718 301.045 142.378 299.939 142.803C298.663 143.271 297.387 143.547 296.111 143.632C295.516 143.632 294.878 143.42 294.197 142.994C293.517 142.611 292.943 141.995 292.475 141.144C292.007 140.251 291.709 139.124 291.582 137.763C291.454 136.359 291.624 134.7 292.092 132.786C292.687 130.192 293.623 127.831 294.899 125.705C296.218 123.578 297.642 121.771 299.174 120.282C300.705 118.751 302.215 117.602 303.703 116.837C305.192 116.071 306.425 115.731 307.404 115.816C308.552 116.029 309.488 116.369 310.211 116.837C310.806 117.262 311.189 117.9 311.359 118.751C311.572 119.559 311.232 120.643 310.338 122.004C310.934 121.877 311.423 121.792 311.806 121.749C312.231 121.707 312.55 121.685 312.763 121.685C313.018 121.685 313.188 121.707 313.273 121.749C313.316 121.834 313.337 122.026 313.337 122.323C313.337 122.579 313.273 123.068 313.146 123.791C313.018 124.514 312.827 125.492 312.571 126.726C312.316 127.959 311.976 129.554 311.551 131.51C311.466 131.893 311.38 132.255 311.295 132.595C311.253 132.893 311.189 133.212 311.104 133.552C311.061 133.85 310.998 134.211 310.913 134.637C310.828 135.062 310.721 135.594 310.594 136.232C310.551 136.614 310.53 137.04 310.53 137.508C310.572 137.933 310.657 138.337 310.785 138.72C310.913 139.103 311.104 139.422 311.359 139.677C311.657 139.889 312.061 139.996 312.571 139.996C312.997 139.996 313.55 139.741 314.23 139.23C314.911 138.677 315.634 137.997 316.399 137.189C317.165 136.338 317.952 135.423 318.76 134.445C319.611 133.424 320.397 132.446 321.12 131.51C321.843 130.575 322.481 129.745 323.034 129.022C323.63 128.299 324.055 127.768 324.31 127.427C324.651 127.045 324.991 126.832 325.331 126.789C325.671 126.704 325.927 126.789 326.097 127.045C326.267 127.3 326.288 127.683 326.161 128.193C326.075 128.703 325.778 129.299 325.267 129.979ZM306.574 132.786C306.787 131.936 307.042 130.936 307.34 129.788C307.638 128.64 307.893 127.534 308.105 126.47C308.318 125.407 308.467 124.535 308.552 123.855C308.68 123.132 308.658 122.791 308.488 122.834C308.276 122.876 308.042 122.94 307.786 123.025C307.574 123.11 307.297 123.174 306.957 123.217C306.617 123.259 306.277 123.323 305.936 123.408C306.277 122.728 306.468 122.175 306.51 121.749C306.596 121.281 306.617 120.92 306.574 120.665C306.532 120.367 306.447 120.133 306.319 119.963C305.851 119.58 305.022 119.899 303.831 120.92C302.683 121.898 301.343 123.727 299.812 126.407C299.174 127.512 298.663 128.703 298.28 129.979C297.898 131.213 297.621 132.382 297.451 133.488C297.323 134.594 297.302 135.572 297.387 136.423C297.472 137.231 297.642 137.763 297.898 138.018C298.365 138.486 298.897 138.72 299.493 138.72C300.088 138.677 300.684 138.507 301.279 138.209C301.917 137.869 302.534 137.444 303.129 136.933C303.767 136.423 304.32 135.891 304.788 135.338C305.298 134.785 305.702 134.275 306 133.807C306.34 133.339 306.532 132.999 306.574 132.786Z"/>
</mask>
<path d="M58.5244 151.799C58.6945 151.671 58.971 151.458 59.3538 151.161C59.6941 150.863 60.1194 150.31 60.6298 149.502C61.0976 148.694 61.6293 147.524 62.2247 145.993C62.8202 144.462 63.4369 142.378 64.0749 139.741C64.4152 138.337 64.8618 136.551 65.4147 134.381C65.9676 132.212 66.5631 129.894 67.2011 127.427C67.8816 124.96 68.5621 122.43 69.2426 119.835C69.9231 117.198 70.5824 114.71 71.2204 112.371C71.8584 109.989 72.4326 107.841 72.9429 105.927C73.4533 104.013 73.8574 102.525 74.1551 101.461C73.347 101.972 72.5602 102.546 71.7946 103.184C71.1141 103.737 70.391 104.375 69.6254 105.098C68.8598 105.778 68.1155 106.501 67.3925 107.267C66.8395 106.799 66.4142 106.289 66.1165 105.736C65.9463 105.481 65.7975 105.204 65.6699 104.906C65.4147 104.268 65.2871 103.609 65.2871 102.929C65.2871 102.248 65.8187 101.546 66.8821 100.823C67.435 100.44 68.2644 99.8875 69.3702 99.1645C70.5186 98.4414 71.9222 97.7396 73.5809 97.0591C75.2397 96.3361 77.1749 95.7193 79.3866 95.2089C81.5983 94.6986 84.0439 94.4434 86.7235 94.4434C89.403 94.4434 91.5509 94.975 93.1672 96.0383C94.8259 97.1016 96.0807 98.3989 96.9313 99.9301C97.8245 101.461 98.3987 103.077 98.6539 104.779C98.9091 106.48 98.9729 107.969 98.8453 109.245C98.5901 111.627 97.8245 114.115 96.5485 116.709C95.2725 119.304 93.5074 121.707 91.2532 123.918C88.999 126.088 86.2556 127.938 83.0232 129.469C79.7907 131 76.0904 131.872 71.9222 132.085C71.5819 133.701 71.2416 135.36 70.9014 137.061C70.5611 138.762 70.1996 140.442 69.8168 142.101C69.434 143.717 69.03 145.227 68.6046 146.631C68.2218 148.077 67.8178 149.31 67.3925 150.331C66.9671 151.437 66.4142 152.309 65.7337 152.947C65.0532 153.627 63.9686 153.968 62.4799 153.968C61.7144 153.968 61.0126 153.776 60.3746 153.393C59.6941 153.011 59.0773 152.479 58.5244 151.799ZM73.6447 122.706C73.5171 123.387 73.347 124.28 73.1343 125.386C72.9642 126.449 72.7516 127.661 72.4964 129.022C73.6447 128.852 74.9207 128.554 76.3243 128.129C77.7279 127.661 79.1314 127.045 80.535 126.279C81.9386 125.513 83.2996 124.599 84.6181 123.536C85.9792 122.43 87.2126 121.175 88.3185 119.771C89.4243 118.325 90.3388 116.709 91.0618 114.923C91.8274 113.094 92.3165 111.074 92.5292 108.862C92.7419 106.735 92.6143 104.97 92.1464 103.567C91.7211 102.12 91.0831 100.972 90.2324 100.121C89.3818 99.2283 88.4035 98.6115 87.2977 98.2713C86.1918 97.8885 85.086 97.6971 83.9801 97.6971C82.9168 97.6971 81.8748 97.846 80.854 98.1437C79.8332 98.4414 78.8124 98.8242 77.7917 99.2921C77.9193 99.3346 78.0681 99.4409 78.2383 99.6111C78.4934 99.8663 78.6848 100.228 78.8124 100.696C77.7917 104.821 76.941 108.266 76.2605 111.031C75.6225 113.796 75.1121 116.05 74.7293 117.794C74.2615 119.835 73.8999 121.473 73.6447 122.706ZM111.924 105.098C111.796 105.566 111.541 106.033 111.158 106.501C110.818 106.927 110.414 107.288 109.946 107.586C109.521 107.841 109.074 108.011 108.606 108.096C108.139 108.181 107.756 108.096 107.458 107.841C106.565 107.161 106.097 106.438 106.055 105.672C106.012 104.864 106.203 104.12 106.629 103.439C107.054 102.716 107.586 102.12 108.224 101.653C108.862 101.142 109.415 100.845 109.882 100.759C110.35 100.674 110.733 100.781 111.031 101.078C111.371 101.334 111.626 101.695 111.796 102.163C111.967 102.588 112.052 103.077 112.052 103.63C112.094 104.183 112.052 104.672 111.924 105.098ZM103.12 118.687C103.332 118.432 103.737 118.219 104.332 118.049C104.927 117.879 105.544 117.751 106.182 117.666C106.82 117.539 107.394 117.475 107.905 117.475C108.458 117.432 108.777 117.432 108.862 117.475C108.904 117.517 108.798 117.964 108.543 118.815C108.288 119.665 107.969 120.665 107.586 121.813C107.203 122.961 106.799 124.152 106.374 125.386C105.948 126.577 105.629 127.555 105.417 128.321C105.204 129.086 104.949 129.958 104.651 130.936C104.353 131.872 104.077 132.808 103.822 133.743C103.609 134.637 103.46 135.487 103.375 136.295C103.29 137.104 103.354 137.72 103.566 138.146C103.779 138.656 104.013 139.017 104.268 139.23C104.523 139.4 104.8 139.485 105.098 139.485C105.948 139.485 107.012 139.017 108.288 138.082C109.606 137.146 110.925 136.04 112.243 134.764C113.604 133.446 114.859 132.127 116.007 130.809C117.156 129.448 118.006 128.363 118.559 127.555C118.899 127.13 119.24 126.853 119.58 126.726C119.963 126.598 120.26 126.619 120.473 126.789C120.728 126.959 120.856 127.236 120.856 127.619C120.898 128.002 120.771 128.448 120.473 128.959C119.793 130.149 118.793 131.574 117.475 133.233C116.156 134.849 114.752 136.423 113.264 137.954C111.775 139.443 110.308 140.719 108.862 141.782C107.458 142.845 106.31 143.398 105.417 143.441C104.694 143.483 103.97 143.356 103.247 143.058C102.567 142.803 101.929 142.441 101.333 141.973C100.781 141.463 100.313 140.889 99.9299 140.251C99.5471 139.57 99.3344 138.869 99.2919 138.146C99.1643 137.082 99.1643 135.636 99.2919 133.807C99.4195 131.936 99.6534 130.043 99.9937 128.129C100.334 126.173 100.759 124.322 101.27 122.579C101.823 120.835 102.439 119.538 103.12 118.687ZM134.764 144.27C133.786 144.27 132.935 144.079 132.212 143.696C131.532 143.356 130.979 142.888 130.553 142.292C130.128 141.697 129.852 141.017 129.724 140.251C129.596 139.443 129.639 138.592 129.852 137.699C129.979 137.104 130.192 136.317 130.489 135.338C130.787 134.318 131.085 133.233 131.383 132.085C131.723 130.894 132.021 129.724 132.276 128.576C132.574 127.385 132.765 126.322 132.85 125.386C132.935 124.408 132.893 123.621 132.722 123.025C132.552 122.387 132.191 122.068 131.638 122.068C130.957 122.068 130.256 122.302 129.533 122.77C128.809 123.195 128.065 123.791 127.3 124.556C126.576 125.322 125.832 126.215 125.067 127.236C124.344 128.214 123.62 129.235 122.897 130.298C122.515 131.744 122.196 133.02 121.94 134.126C121.685 135.19 121.451 136.168 121.239 137.061C121.069 137.912 120.898 138.677 120.728 139.358C120.558 139.996 120.409 140.612 120.282 141.208C120.154 141.633 119.771 142.059 119.133 142.484C118.495 142.867 117.815 143.186 117.092 143.441C116.369 143.696 115.752 143.824 115.242 143.824C114.689 143.824 114.455 143.632 114.54 143.249C114.582 142.994 114.731 142.42 114.986 141.527C115.199 140.634 115.476 139.592 115.816 138.401C116.113 137.167 116.432 135.87 116.773 134.509C117.113 133.148 117.432 131.851 117.73 130.617C117.942 129.639 118.176 128.554 118.432 127.364C118.644 126.343 118.899 125.152 119.197 123.791C119.537 122.43 119.92 120.941 120.345 119.325C120.643 119.07 120.941 118.878 121.239 118.751C121.579 118.581 121.919 118.453 122.259 118.368C122.6 118.24 122.961 118.155 123.344 118.113C123.684 118.113 124.025 118.134 124.365 118.177C124.663 118.219 124.96 118.304 125.258 118.432C125.598 118.517 125.896 118.666 126.151 118.878C126.024 119.176 125.875 119.601 125.705 120.154C125.534 120.665 125.364 121.218 125.194 121.813C125.024 122.494 124.811 123.195 124.556 123.918C125.109 123.153 125.726 122.387 126.406 121.622C127.129 120.814 127.895 120.09 128.703 119.453C129.554 118.815 130.447 118.304 131.383 117.921C132.318 117.496 133.275 117.283 134.254 117.283C135.062 117.283 135.785 117.517 136.423 117.985C137.061 118.453 137.55 119.112 137.89 119.963C138.273 120.771 138.486 121.749 138.528 122.898C138.613 124.046 138.464 125.301 138.082 126.662L137.38 129.469C137.167 130.362 136.891 131.425 136.55 132.659C136.253 133.85 135.87 135.168 135.402 136.614C135.147 137.55 135.04 138.358 135.083 139.039C135.168 139.719 135.593 140.06 136.359 140.06C137.125 140.06 138.082 139.592 139.23 138.656C140.421 137.72 141.612 136.593 142.803 135.275C143.994 133.956 145.121 132.616 146.184 131.255C147.247 129.852 148.055 128.725 148.608 127.874C148.991 127.321 149.353 126.959 149.693 126.789C150.033 126.619 150.288 126.598 150.459 126.726C150.671 126.853 150.778 127.151 150.778 127.619C150.778 128.044 150.607 128.597 150.267 129.278C149.969 129.873 149.502 130.66 148.864 131.638C148.268 132.616 147.545 133.658 146.694 134.764C145.844 135.87 144.929 136.997 143.951 138.146C142.973 139.251 141.952 140.272 140.889 141.208C139.825 142.101 138.762 142.824 137.699 143.377C136.678 143.973 135.7 144.27 134.764 144.27ZM178.721 129.979C177.743 131.596 176.616 133.276 175.34 135.019C174.107 136.721 172.788 138.294 171.385 139.741C169.981 141.144 168.535 142.314 167.046 143.249C165.558 144.185 164.069 144.653 162.58 144.653C161.092 144.653 160.007 144.143 159.327 143.122C158.689 142.144 158.391 141.038 158.433 139.804C158.433 139.251 158.476 138.762 158.561 138.337C158.689 137.912 158.816 137.529 158.944 137.189C159.071 136.848 159.199 136.508 159.327 136.168C159.497 135.785 159.646 135.36 159.773 134.892C159.943 134.339 159.943 133.85 159.773 133.424C159.646 132.957 159.475 132.553 159.263 132.212C158.88 132.638 158.433 133.02 157.923 133.361C157.455 133.658 156.86 133.807 156.137 133.807C155.626 133.807 155.158 133.573 154.733 133.105C154.308 132.595 154.095 131.978 154.095 131.255C154.095 130.66 154.223 130.171 154.478 129.788C154.776 129.405 155.095 129.107 155.435 128.895C155.818 128.682 156.2 128.533 156.583 128.448C156.966 128.363 157.285 128.321 157.54 128.321C157.668 128.321 157.923 128.342 158.306 128.384C158.731 128.427 159.178 128.491 159.646 128.576C161.177 127.342 162.261 126.236 162.899 125.258C163.58 124.237 163.644 123.323 163.091 122.515C162.75 121.962 162.325 121.685 161.815 121.685C161.304 121.643 160.773 121.771 160.22 122.068C159.667 122.323 159.114 122.664 158.561 123.089C158.051 123.514 157.583 123.918 157.157 124.301C156.307 125.152 155.35 126.173 154.286 127.364C153.266 128.512 152.415 129.469 151.735 130.235C151.437 131.51 151.139 132.85 150.841 134.254C150.586 135.487 150.288 136.891 149.948 138.465C149.65 139.996 149.331 141.591 148.991 143.249C148.736 143.377 148.459 143.462 148.162 143.505C147.907 143.59 147.673 143.654 147.46 143.696C147.205 143.739 146.95 143.76 146.694 143.76C146.354 143.76 146.035 143.739 145.737 143.696C145.44 143.696 145.206 143.59 145.036 143.377C144.823 143.207 144.717 142.909 144.717 142.484C144.674 142.059 144.78 141.463 145.036 140.698C145.376 139.592 145.801 138.124 146.312 136.295C146.822 134.424 147.354 132.382 147.907 130.171C148.459 127.959 149.012 125.662 149.565 123.28C150.161 120.856 150.714 118.559 151.224 116.39C151.735 114.178 152.16 112.201 152.5 110.457C152.883 108.67 153.159 107.267 153.329 106.246C153.457 105.14 153.585 104.077 153.712 103.056C153.797 102.206 153.84 101.376 153.84 100.568C153.882 99.7174 153.84 99.0794 153.712 98.6541C153.925 98.4414 154.223 98.25 154.605 98.0799C154.988 97.9098 155.414 97.7822 155.881 97.6971C156.349 97.5695 156.902 97.4632 157.54 97.3781C158.263 97.293 158.859 97.2718 159.327 97.3143C159.837 97.3568 160.198 97.5695 160.411 97.9523C160.666 98.3776 160.709 99.1007 160.539 100.121C160.411 101.1 160.113 102.482 159.646 104.268C159.05 106.565 158.433 108.67 157.795 110.584C157.2 112.456 156.604 114.221 156.009 115.88C155.456 117.539 154.903 119.155 154.35 120.728C153.84 122.26 153.372 123.833 152.947 125.45C153.797 124.216 154.861 122.919 156.137 121.558C157.413 120.154 158.859 119.006 160.475 118.113C162.176 117.22 163.58 116.773 164.686 116.773C166.047 116.773 167.025 117.241 167.62 118.177C168.216 119.07 168.492 120.133 168.45 121.366C168.407 122.345 168.152 123.259 167.684 124.11C167.259 124.918 166.727 125.684 166.089 126.407C165.451 127.087 164.771 127.683 164.048 128.193C163.325 128.703 162.708 129.129 162.198 129.469C162.793 129.809 163.303 130.277 163.729 130.872C164.197 131.425 164.409 132.127 164.367 132.978C164.324 134.126 164.09 135.147 163.665 136.04C163.282 136.891 163.091 137.678 163.091 138.401C163.133 138.954 163.24 139.358 163.41 139.613C163.622 139.868 164.048 139.996 164.686 139.996C165.834 139.996 167.025 139.507 168.258 138.528C169.534 137.55 170.725 136.423 171.831 135.147C172.937 133.871 173.958 132.616 174.893 131.383C175.829 130.107 176.552 129.171 177.063 128.576C177.786 127.81 178.381 127.619 178.849 128.002C179.359 128.342 179.317 129.001 178.721 129.979ZM185.293 120.984C183.124 120.984 181.358 120.75 179.997 120.282C178.679 119.814 177.786 119.219 177.318 118.496C177.105 118.198 176.914 117.751 176.744 117.156C176.574 116.56 176.637 115.901 176.935 115.178C177.53 115.646 178.168 116.007 178.849 116.263C179.572 116.475 180.231 116.624 180.827 116.709C181.55 116.837 182.252 116.901 182.932 116.901C184.208 116.901 185.442 116.794 186.632 116.582C187.866 116.369 189.078 116.071 190.269 115.688C190.779 113.136 191.269 110.84 191.736 108.798C192.247 106.757 192.821 105.098 193.459 103.822C194.139 102.418 194.841 101.164 195.564 100.058C196.33 98.9093 197.159 97.9523 198.052 97.1867C198.988 96.3786 200.009 95.7619 201.115 95.3365C202.221 94.9112 203.497 94.6986 204.943 94.6986C206.006 94.6986 206.835 94.9112 207.431 95.3365C208.069 95.7619 208.537 96.2935 208.834 96.9315C209.175 97.5695 209.366 98.2713 209.409 99.0369C209.494 99.7599 209.536 100.44 209.536 101.078C209.536 102.482 209.196 104.013 208.515 105.672C207.835 107.331 206.878 108.968 205.645 110.584C204.411 112.201 202.922 113.732 201.179 115.178C199.477 116.624 197.563 117.815 195.437 118.751C194.714 121.558 193.991 124.344 193.268 127.108C192.587 129.83 191.907 132.085 191.226 133.871C190.631 135.53 189.865 137.38 188.929 139.422C188.036 141.463 186.93 143.42 185.612 145.291C186.42 145.801 187.228 146.333 188.036 146.886C188.887 147.439 189.737 147.928 190.588 148.353C191.439 148.821 192.289 149.204 193.14 149.502C194.033 149.799 194.969 149.948 195.947 149.948C196.968 149.906 197.967 149.757 198.946 149.502C199.796 149.289 200.689 148.928 201.625 148.417C202.561 147.949 203.433 147.269 204.241 146.376C204.539 146.886 204.624 147.652 204.496 148.672C204.411 149.693 204.092 150.714 203.539 151.735C202.986 152.755 202.199 153.649 201.179 154.414C200.158 155.18 198.882 155.563 197.351 155.563C195.734 155.563 194.225 155.329 192.821 154.861C191.417 154.436 190.099 153.904 188.865 153.266C187.632 152.628 186.462 151.926 185.356 151.161C184.293 150.437 183.294 149.757 182.358 149.119C181.082 150.352 179.678 151.352 178.147 152.118C176.616 152.883 174.915 153.266 173.043 153.266C171.555 153.266 170.364 152.841 169.471 151.99C168.577 151.182 168.173 150.076 168.258 148.672C168.301 148.162 168.45 147.545 168.705 146.822C168.96 146.142 169.449 145.482 170.172 144.844C170.853 144.206 171.81 143.654 173.043 143.186C174.277 142.76 175.872 142.548 177.828 142.548C178.551 142.548 179.232 142.611 179.87 142.739C180.55 142.909 181.21 143.101 181.848 143.313C182.315 142.463 182.783 141.484 183.251 140.379C183.719 139.273 184.229 138.018 184.782 136.614C185.761 133.935 186.611 131.255 187.334 128.576C188.057 125.854 188.674 123.217 189.184 120.665C188.589 120.792 187.951 120.877 187.27 120.92C186.632 120.962 185.973 120.984 185.293 120.984ZM174.702 149.821C175.255 149.608 175.893 149.395 176.616 149.183C177.339 148.97 178.168 148.375 179.104 147.396C178.466 147.184 177.977 147.077 177.637 147.077C176.106 147.077 175 147.29 174.319 147.715C173.596 148.183 173.235 148.63 173.235 149.055C173.235 149.353 173.362 149.566 173.618 149.693C173.873 149.863 174.234 149.906 174.702 149.821ZM198.818 105.417C198.605 106.055 198.329 106.99 197.989 108.224C197.648 109.457 197.287 110.882 196.904 112.498C199.201 111.01 201.03 109.308 202.391 107.395C203.794 105.481 204.496 103.567 204.496 101.653C204.496 100.504 204.156 99.9301 203.475 99.9301C202.88 99.9301 202.114 100.398 201.179 101.334C200.243 102.227 199.456 103.588 198.818 105.417ZM239.649 129.979C239.054 130.83 238.288 131.893 237.353 133.169C236.417 134.403 235.439 135.657 234.418 136.933C233.44 138.167 232.461 139.315 231.483 140.379C230.547 141.399 229.76 142.122 229.122 142.548C228.697 142.803 228.208 143.016 227.655 143.186C227.102 143.356 226.528 143.462 225.933 143.505C225.38 143.547 224.848 143.505 224.338 143.377C223.827 143.292 223.381 143.122 222.998 142.867C222.615 142.569 222.296 142.144 222.041 141.591C221.828 141.123 221.615 140.506 221.403 139.741C221.233 138.975 221.169 138.018 221.211 136.87C220.191 138.571 219.064 139.889 217.83 140.825C216.597 141.718 215.427 142.378 214.321 142.803C213.045 143.271 211.769 143.547 210.493 143.632C209.898 143.632 209.26 143.42 208.579 142.994C207.899 142.611 207.325 141.995 206.857 141.144C206.389 140.251 206.091 139.124 205.964 137.763C205.836 136.359 206.006 134.7 206.474 132.786C207.069 130.192 208.005 127.831 209.281 125.705C210.6 123.578 212.024 121.771 213.556 120.282C215.087 118.751 216.597 117.602 218.085 116.837C219.574 116.071 220.807 115.731 221.786 115.816C222.934 116.029 223.87 116.369 224.593 116.837C225.188 117.262 225.571 117.9 225.741 118.751C225.954 119.559 225.614 120.643 224.72 122.004C225.316 121.877 225.805 121.792 226.188 121.749C226.613 121.707 226.932 121.685 227.145 121.685C227.4 121.685 227.57 121.707 227.655 121.749C227.698 121.834 227.719 122.026 227.719 122.323C227.719 122.579 227.655 123.068 227.528 123.791C227.4 124.514 227.209 125.492 226.953 126.726C226.698 127.959 226.358 129.554 225.933 131.51C225.847 131.893 225.762 132.255 225.677 132.595C225.635 132.893 225.571 133.212 225.486 133.552C225.443 133.85 225.38 134.211 225.295 134.637C225.209 135.062 225.103 135.594 224.976 136.232C224.933 136.614 224.912 137.04 224.912 137.508C224.954 137.933 225.039 138.337 225.167 138.72C225.295 139.103 225.486 139.422 225.741 139.677C226.039 139.889 226.443 139.996 226.953 139.996C227.379 139.996 227.932 139.741 228.612 139.23C229.293 138.677 230.016 137.997 230.781 137.189C231.547 136.338 232.334 135.423 233.142 134.445C233.992 133.424 234.779 132.446 235.502 131.51C236.225 130.575 236.863 129.745 237.416 129.022C238.012 128.299 238.437 127.768 238.692 127.427C239.033 127.045 239.373 126.832 239.713 126.789C240.053 126.704 240.309 126.789 240.479 127.045C240.649 127.3 240.67 127.683 240.542 128.193C240.457 128.703 240.16 129.299 239.649 129.979ZM220.956 132.786C221.169 131.936 221.424 130.936 221.722 129.788C222.02 128.64 222.275 127.534 222.487 126.47C222.7 125.407 222.849 124.535 222.934 123.855C223.062 123.132 223.04 122.791 222.87 122.834C222.658 122.876 222.424 122.94 222.168 123.025C221.956 123.11 221.679 123.174 221.339 123.217C220.999 123.259 220.658 123.323 220.318 123.408C220.658 122.728 220.85 122.175 220.892 121.749C220.977 121.281 220.999 120.92 220.956 120.665C220.914 120.367 220.829 120.133 220.701 119.963C220.233 119.58 219.404 119.899 218.213 120.92C217.064 121.898 215.725 123.727 214.194 126.407C213.556 127.512 213.045 128.703 212.662 129.979C212.28 131.213 212.003 132.382 211.833 133.488C211.705 134.594 211.684 135.572 211.769 136.423C211.854 137.231 212.024 137.763 212.28 138.018C212.747 138.486 213.279 138.72 213.875 138.72C214.47 138.677 215.065 138.507 215.661 138.209C216.299 137.869 216.916 137.444 217.511 136.933C218.149 136.423 218.702 135.891 219.17 135.338C219.68 134.785 220.084 134.275 220.382 133.807C220.722 133.339 220.914 132.999 220.956 132.786ZM243.286 143.696C241.67 143.696 240.351 143.441 239.33 142.93C238.31 142.42 237.501 141.803 236.906 141.08C236.353 140.315 235.949 139.507 235.694 138.656C235.481 137.763 235.375 136.955 235.375 136.232C235.375 134.956 235.481 133.616 235.694 132.212C235.906 130.766 236.162 129.448 236.459 128.257C236.757 127.023 237.012 125.981 237.225 125.131C237.48 124.28 237.65 123.748 237.735 123.536C238.118 122.302 238.607 121.239 239.203 120.346C239.841 119.41 240.713 118.772 241.818 118.432C242.244 118.347 242.69 118.262 243.158 118.177C243.541 118.134 243.924 118.113 244.307 118.113C244.732 118.113 245.115 118.177 245.455 118.304C244.307 121.239 243.392 123.684 242.712 125.641C242.074 127.597 241.585 129.192 241.244 130.426C240.861 131.829 240.628 132.957 240.542 133.807C240.33 135.721 240.5 137.167 241.053 138.146C241.606 139.124 242.733 139.613 244.434 139.613C245.54 139.613 246.603 139.209 247.624 138.401C248.645 137.55 249.581 136.466 250.431 135.147C250.304 134.466 250.24 133.765 250.24 133.042C250.24 131.681 250.346 130.362 250.559 129.086C250.814 127.768 251.091 126.555 251.388 125.45C251.729 124.301 252.069 123.28 252.409 122.387C252.792 121.494 253.111 120.792 253.366 120.282C253.834 119.261 254.259 118.644 254.642 118.432C255.025 118.177 255.642 118.028 256.492 117.985C256.832 117.943 257.109 117.943 257.322 117.985C257.577 117.985 257.789 118.006 257.96 118.049C258.47 118.177 258.725 118.432 258.725 118.815C258.725 119.495 258.683 120.516 258.598 121.877C258.512 123.238 258.257 124.641 257.832 126.088C257.534 127.278 257.237 128.299 256.939 129.15C256.684 129.958 256.428 130.66 256.173 131.255C255.918 131.808 255.663 132.276 255.408 132.659C255.152 132.999 254.918 133.318 254.706 133.616C254.791 134.892 254.897 135.913 255.025 136.678C255.152 137.444 255.301 138.039 255.471 138.465C255.684 138.847 255.918 139.124 256.173 139.294C256.471 139.422 256.79 139.485 257.13 139.485C257.726 139.485 258.427 139.209 259.236 138.656C260.044 138.06 260.873 137.337 261.724 136.487C262.617 135.594 263.489 134.637 264.339 133.616C265.233 132.553 266.041 131.553 266.764 130.617C267.487 129.682 268.104 128.873 268.614 128.193C269.124 127.47 269.443 127.023 269.571 126.853C269.869 126.47 270.145 126.236 270.4 126.151C270.698 126.066 270.932 126.109 271.102 126.279C271.272 126.407 271.357 126.641 271.357 126.981C271.4 127.278 271.315 127.619 271.102 128.002C270.251 129.618 269.188 131.34 267.912 133.169C266.679 134.956 265.339 136.614 263.893 138.146C262.489 139.677 261.064 140.953 259.618 141.973C258.172 142.994 256.811 143.505 255.535 143.505C254.387 143.505 253.472 143.122 252.792 142.356C252.154 141.548 251.601 140.4 251.133 138.911C250.155 140.442 249.006 141.633 247.688 142.484C246.369 143.292 244.902 143.696 243.286 143.696ZM263.574 142.356C263.276 142.824 262.957 143.122 262.617 143.249C262.234 143.42 261.915 143.441 261.66 143.313C261.362 143.228 261.171 143.016 261.086 142.675C261.001 142.335 261.086 141.91 261.341 141.399C261.468 141.144 261.766 140.57 262.234 139.677C262.659 138.784 263.191 137.72 263.829 136.487C264.425 135.211 265.084 133.85 265.807 132.404C266.53 130.915 267.21 129.511 267.848 128.193C268.529 126.874 269.146 125.705 269.699 124.684C270.251 123.621 270.656 122.855 270.911 122.387C270.443 121.962 270.124 121.664 269.954 121.494C269.784 121.281 269.656 120.856 269.571 120.218C269.486 119.665 269.613 118.942 269.954 118.049C270.294 117.156 270.741 116.305 271.294 115.497C271.846 114.646 272.463 113.923 273.144 113.328C273.824 112.732 274.483 112.435 275.121 112.435C276.312 112.435 277.142 112.817 277.61 113.583C278.12 114.349 278.418 115.135 278.503 115.944C278.588 116.496 278.545 117.198 278.375 118.049C278.205 118.9 277.886 119.665 277.418 120.346C277.546 120.431 277.716 120.537 277.929 120.665C278.141 120.75 278.482 120.792 278.949 120.792C279.63 120.792 280.098 120.75 280.353 120.665C280.651 120.58 281.097 120.537 281.693 120.537C282.416 120.537 283.011 120.728 283.479 121.111C283.947 121.452 284.33 121.898 284.627 122.451C284.925 122.961 285.138 123.536 285.265 124.174C285.436 124.769 285.542 125.322 285.584 125.832C285.712 126.896 285.436 128.002 284.755 129.15C284.075 130.298 283.245 131.553 282.267 132.914C281.671 133.765 281.076 134.722 280.481 135.785C279.885 136.848 279.63 137.805 279.715 138.656C279.8 139.209 279.949 139.655 280.162 139.996C280.374 140.336 280.97 140.506 281.948 140.506C282.671 140.506 283.458 140.251 284.308 139.741C285.202 139.188 286.095 138.507 286.988 137.699C287.924 136.848 288.838 135.934 289.731 134.956C290.625 133.935 291.454 132.957 292.22 132.021C292.985 131.043 293.623 130.171 294.133 129.405C294.686 128.64 295.09 128.087 295.346 127.746C295.558 127.406 295.835 127.172 296.175 127.045C296.515 126.917 296.813 126.917 297.068 127.045C297.323 127.172 297.472 127.427 297.515 127.81C297.6 128.193 297.451 128.703 297.068 129.341C296.813 129.767 296.366 130.447 295.728 131.383C295.133 132.319 294.389 133.361 293.496 134.509C292.645 135.657 291.688 136.848 290.625 138.082C289.561 139.273 288.434 140.379 287.243 141.399C286.095 142.378 284.925 143.186 283.734 143.824C282.586 144.462 281.48 144.781 280.417 144.781C279.311 144.781 278.396 144.568 277.673 144.143C276.95 143.717 276.355 143.207 275.887 142.611C275.462 141.973 275.143 141.293 274.93 140.57C274.76 139.804 274.696 139.103 274.739 138.465C274.781 137.954 274.909 137.423 275.121 136.87C275.377 136.274 275.653 135.679 275.951 135.083C276.291 134.445 276.631 133.829 276.972 133.233C277.354 132.595 277.695 131.978 277.992 131.383C278.715 130.149 279.29 129.107 279.715 128.257C280.183 127.364 280.417 126.619 280.417 126.024C280.417 125.641 280.332 125.301 280.162 125.003C279.991 124.705 279.715 124.556 279.332 124.556C279.077 124.556 278.886 124.578 278.758 124.62C278.673 124.62 278.567 124.62 278.439 124.62C278.354 124.62 278.205 124.641 277.992 124.684C277.822 124.684 277.546 124.684 277.163 124.684C276.61 124.684 276.142 124.599 275.759 124.429C275.377 124.259 275.015 124.131 274.675 124.046C274.505 124.344 274.122 124.982 273.526 125.96C272.931 126.938 272.229 128.087 271.421 129.405C270.656 130.724 269.826 132.106 268.933 133.552C268.082 134.998 267.274 136.359 266.509 137.635C265.743 138.869 265.105 139.932 264.595 140.825C264.042 141.676 263.701 142.186 263.574 142.356ZM325.267 129.979C324.672 130.83 323.906 131.893 322.971 133.169C322.035 134.403 321.057 135.657 320.036 136.933C319.058 138.167 318.079 139.315 317.101 140.379C316.165 141.399 315.378 142.122 314.741 142.548C314.315 142.803 313.826 143.016 313.273 143.186C312.72 143.356 312.146 143.462 311.551 143.505C310.998 143.547 310.466 143.505 309.956 143.377C309.445 143.292 308.999 143.122 308.616 142.867C308.233 142.569 307.914 142.144 307.659 141.591C307.446 141.123 307.234 140.506 307.021 139.741C306.851 138.975 306.787 138.018 306.829 136.87C305.809 138.571 304.682 139.889 303.448 140.825C302.215 141.718 301.045 142.378 299.939 142.803C298.663 143.271 297.387 143.547 296.111 143.632C295.516 143.632 294.878 143.42 294.197 142.994C293.517 142.611 292.943 141.995 292.475 141.144C292.007 140.251 291.709 139.124 291.582 137.763C291.454 136.359 291.624 134.7 292.092 132.786C292.687 130.192 293.623 127.831 294.899 125.705C296.218 123.578 297.642 121.771 299.174 120.282C300.705 118.751 302.215 117.602 303.703 116.837C305.192 116.071 306.425 115.731 307.404 115.816C308.552 116.029 309.488 116.369 310.211 116.837C310.806 117.262 311.189 117.9 311.359 118.751C311.572 119.559 311.232 120.643 310.338 122.004C310.934 121.877 311.423 121.792 311.806 121.749C312.231 121.707 312.55 121.685 312.763 121.685C313.018 121.685 313.188 121.707 313.273 121.749C313.316 121.834 313.337 122.026 313.337 122.323C313.337 122.579 313.273 123.068 313.146 123.791C313.018 124.514 312.827 125.492 312.571 126.726C312.316 127.959 311.976 129.554 311.551 131.51C311.466 131.893 311.38 132.255 311.295 132.595C311.253 132.893 311.189 133.212 311.104 133.552C311.061 133.85 310.998 134.211 310.913 134.637C310.828 135.062 310.721 135.594 310.594 136.232C310.551 136.614 310.53 137.04 310.53 137.508C310.572 137.933 310.657 138.337 310.785 138.72C310.913 139.103 311.104 139.422 311.359 139.677C311.657 139.889 312.061 139.996 312.571 139.996C312.997 139.996 313.55 139.741 314.23 139.23C314.911 138.677 315.634 137.997 316.399 137.189C317.165 136.338 317.952 135.423 318.76 134.445C319.611 133.424 320.397 132.446 321.12 131.51C321.843 130.575 322.481 129.745 323.034 129.022C323.63 128.299 324.055 127.768 324.31 127.427C324.651 127.045 324.991 126.832 325.331 126.789C325.671 126.704 325.927 126.789 326.097 127.045C326.267 127.3 326.288 127.683 326.161 128.193C326.075 128.703 325.778 129.299 325.267 129.979ZM306.574 132.786C306.787 131.936 307.042 130.936 307.34 129.788C307.638 128.64 307.893 127.534 308.105 126.47C308.318 125.407 308.467 124.535 308.552 123.855C308.68 123.132 308.658 122.791 308.488 122.834C308.276 122.876 308.042 122.94 307.786 123.025C307.574 123.11 307.297 123.174 306.957 123.217C306.617 123.259 306.277 123.323 305.936 123.408C306.277 122.728 306.468 122.175 306.51 121.749C306.596 121.281 306.617 120.92 306.574 120.665C306.532 120.367 306.447 120.133 306.319 119.963C305.851 119.58 305.022 119.899 303.831 120.92C302.683 121.898 301.343 123.727 299.812 126.407C299.174 127.512 298.663 128.703 298.28 129.979C297.898 131.213 297.621 132.382 297.451 133.488C297.323 134.594 297.302 135.572 297.387 136.423C297.472 137.231 297.642 137.763 297.898 138.018C298.365 138.486 298.897 138.72 299.493 138.72C300.088 138.677 300.684 138.507 301.279 138.209C301.917 137.869 302.534 137.444 303.129 136.933C303.767 136.423 304.32 135.891 304.788 135.338C305.298 134.785 305.702 134.275 306 133.807C306.34 133.339 306.532 132.999 306.574 132.786Z" stroke="#BB004F" stroke-width="6" mask="url(#path-2-outside-1_391:1783)"/>
</svg>
