<svg width="310" height="273" viewBox="0 0 310 273" fill="none" xmlns="http://www.w3.org/2000/svg">
<path fill-rule="evenodd" clip-rule="evenodd" d="M74.3782 205.586C-106.918 31.5834 91.9374 -49.527 157.94 42.7875C159.411 39.4484 161.068 36.3153 162.891 33.3845C161.631 37.4645 160.58 41.9505 159.737 46.8425C157.569 59.3145 155.965 71.7597 154.926 84.1778C154.015 96.4087 153.039 110.851 151.998 127.506C150.927 144.003 149.52 157.469 147.775 167.905C144.566 169.01 141.389 169.863 138.247 170.466C124.576 173.089 112.3 171.942 101.419 167.024C81.6552 158.272 69.1807 140.382 63.9951 113.355C61.1611 98.5841 62.0253 84.4073 66.5876 70.8243C72.2452 53.6098 82.145 43.6459 96.2871 40.9325C105.244 39.2141 111.993 40.8516 116.535 45.8451C121.048 50.6815 124.365 57.7836 126.489 67.1513C126.79 68.7227 127.772 69.5933 129.433 69.7632C131.065 69.776 132.591 69.2388 134.012 68.1517C135.402 66.9074 135.962 65.5781 135.69 64.1639C133.477 54.3248 128.893 46.5695 121.94 40.8981C114.987 35.2267 106.325 33.3859 95.9541 35.3757C85.5832 37.3656 76.9756 42.6013 70.1312 51.0829C60.209 63.9022 55.7481 80.5612 56.7486 101.06C56.988 106.553 57.6052 111.893 58.6001 117.078C61.5245 132.32 67.8068 145.533 77.4468 156.717C93.3083 174.853 114.046 181.464 139.658 176.549C142.644 175.977 144.907 175.461 146.448 175.002C143.535 190.387 139.236 202.372 133.552 210.956C113.511 201.605 97.5982 198.06 85.8131 200.321C81.1116 201.223 77.3 202.978 74.3782 205.586ZM102.278 230.53C93.8265 223.451 85.9829 216.506 78.7174 209.7C80.7095 208.046 83.4516 206.884 86.9437 206.214C98.1002 204.073 112.478 207.261 130.078 215.777C123.869 223.323 115.972 228.015 106.386 229.854C104.971 230.125 103.601 230.351 102.278 230.53ZM108.141 235.382C122.928 247.476 139.479 259.952 157.94 272.786C173.868 261.713 188.313 250.88 201.378 240.308C191.857 240.77 182.207 239.089 172.429 235.266C165.233 232.574 159.931 230.414 156.524 228.787C153.273 227.13 147.413 224.182 138.942 219.942C130.375 227.939 120.2 233.068 108.415 235.33C108.323 235.347 108.232 235.365 108.141 235.382ZM218.252 226.138C217.776 226.554 217.298 226.97 216.818 227.386C213.446 230.052 208.933 231.928 203.277 233.013C196.678 234.279 189.496 233.784 181.731 231.526C173.997 229.426 161.158 224.07 143.213 215.457C152.966 204.299 159.744 188.254 163.548 167.323C170.547 163.047 177.149 157.545 183.352 150.815C199.495 133.055 210.548 110 216.513 81.6478C220.588 62.1302 221.299 45.4576 218.646 31.6298C215.622 15.8665 209.877 6.56554 201.412 3.72693C274.905 -19.517 385.631 67.9 233.925 211.888C233.916 211.839 233.907 211.791 233.898 211.742C233.536 209.857 232.845 207.953 231.824 206.031C228.95 200.391 224.842 198.084 219.499 199.109C217.614 199.471 216.616 200.64 216.507 202.616C218.078 202.314 219.549 202.765 220.921 203.968C222.479 205.299 223.469 207.064 223.892 209.263C224.314 211.463 224.216 213.926 223.598 216.651C222.698 220.424 220.916 223.587 218.252 226.138ZM170.325 47.2549C172.069 24.9263 178.44 12.7068 189.44 10.5964C196.571 9.55395 201.759 16.2157 205.004 30.5815C208.659 48.7789 207.616 69.6695 201.877 93.2534C194.837 122.789 182.602 144.361 165.174 157.969C167.538 140.572 168.761 114.677 168.842 80.2859C168.962 69.0216 169.456 58.0113 170.325 47.2549Z" fill="#D60055"/>
</svg>
