<svg width="482" height="476" viewBox="0 0 482 476" fill="none" xmlns="http://www.w3.org/2000/svg">
<path d="M400.617 48.8072C357.87 -4.50334 297.175 -31.3753 246.797 60.0761C210.467 125.956 154.801 13.7869 98.9608 33.8109C4.44939 67.7043 84.8274 143.466 62.5435 208.479C51.7051 240.292 25.1726 253.121 11.8196 280.166C1.50136 301.057 -8.90356 355.321 12.5132 388.001C31.9358 417.56 79.5383 412.012 101.475 423.628C126.187 436.63 147.691 468.097 172.316 474.165C202.923 481.706 230.67 464.369 258.59 451.887C293.793 436.197 313.302 396.496 344.864 376.212C385.877 349.773 518.973 332.87 472.151 252.514C453.942 221.395 411.802 209.172 406.6 168.518C402.438 136.271 426.282 80.8802 400.617 48.8072Z" fill="#FFCCCC"/>
<path d="M225.687 214.735C216.289 214.414 193.527 214.935 180.532 230.487C173.558 238.834 172.213 248.14 171.081 256.74C164.029 310.323 162.68 336.023 162.68 336.023C159.946 388.114 156.286 407.772 168.981 426.332C175.519 435.892 181.385 437.835 183.682 438.409C196.564 441.628 204.693 428.658 221.486 423.707C238.258 418.762 248.716 426.225 269.791 431.058C290.824 435.881 324.947 442.672 343.299 430.008C374.429 408.526 363.342 327.966 335.948 282.993C330.759 274.475 313.062 255.787 277.667 218.411C276.32 216.988 273.443 214.003 268.741 211.585C253.652 203.827 235.729 210.123 225.687 214.735Z" fill="#FFBD66"/>
<path d="M174.722 243.762C162.68 268.177 163.987 311.121 162.68 336.023C159.946 388.114 156.286 407.772 168.981 426.332C175.519 435.892 181.385 437.835 183.682 438.409C196.564 441.628 204.693 428.658 221.486 423.707C238.258 418.762 248.716 426.225 269.791 431.058C290.824 435.881 324.947 442.672 343.299 430.008C374.429 408.526 363.342 327.966 335.948 282.993C330.908 274.718 328.56 273.352 320.819 264.436C303.098 293.182 200.022 302.519 174.722 243.762Z" fill="#D60055"/>
<path opacity="0.300003" d="M236.712 255.69C232.365 263.924 227.496 275.053 224.111 288.768C221.121 300.882 220.11 311.678 219.91 320.271C219.85 332.825 220.518 347.138 222.536 362.801C224.48 377.891 227.317 391.44 230.412 403.23" stroke="#EDDB85" stroke-opacity="0.8" stroke-width="6.66667" stroke-miterlimit="10" stroke-linecap="round" stroke-linejoin="round"/>
<path opacity="0.119995" d="M180.532 230.487C173.558 238.834 172.213 248.14 171.081 256.74C164.029 310.323 162.68 336.023 162.68 336.023C159.946 388.114 156.286 407.772 168.981 426.332C175.519 435.892 181.385 437.835 183.682 438.409C190.896 440.212 196.621 436.936 203.211 432.836C206.537 427.243 208.852 421.025 209.935 415.306C211.988 404.469 208.955 399.011 200.484 371.727C183.73 317.765 185.67 307.149 186.833 302.42C191.076 285.153 199.967 285.277 203.634 267.241C207.151 249.945 203.251 228.793 195.036 219.807C189.713 222.167 184.635 225.576 180.532 230.487Z" fill="#EDDB85"/>
<path d="M217.285 170.106C227.243 161.432 243.666 166.699 247.739 168.006C265.102 173.574 269.291 186.511 283.967 185.858C287.907 185.682 292.08 184.551 293.943 186.908C295.037 188.291 294.984 190.432 291.318 201.609C289.108 208.348 288.002 211.718 287.118 213.685C283.691 221.306 280.583 224.623 281.342 229.962C281.513 231.165 281.845 232.224 281.342 232.587C279.948 233.594 274.98 227.205 269.791 223.661C258.952 216.26 250.879 223.821 236.187 219.461C234.446 218.944 216.454 213.311 211.51 197.409C208.902 189.022 209.616 176.787 217.285 170.106Z" fill="#FFBD66"/>
<path d="M289.328 191.887C286.849 196.762 285.69 200.866 285.092 203.778C284.664 205.857 284.628 206.815 283.649 212.121C282.73 217.112 282.597 217.157 282.257 219.415C281.314 225.673 281.563 230.418 281.74 230.429C281.914 230.439 281.172 225.866 283.732 221.586C285.808 218.114 287.73 218.726 289.271 215.538C290.888 212.193 289.323 210.379 290.762 206.147C291.648 203.546 292.68 203.386 294.18 200.525C295.907 197.228 296.493 194.056 296.696 191.707C294.24 191.767 291.784 191.828 289.328 191.887Z" fill="#DB9256"/>
<path d="M286.855 192.421C278.765 191.486 269.76 190.007 260.078 187.695C251.586 185.667 244.129 184.621 237.238 182.182C237.57 184.638 238.23 187.057 241.176 189.795C243.195 191.673 244.981 191.983 252.202 193.996C263.046 197.019 262.189 197.204 265.328 197.671C270.03 198.371 274.466 199.032 279.505 197.146C283.004 195.837 285.438 193.808 286.855 192.421Z" fill="#DB9256"/>
<path d="M263.228 27.5536C268.736 30.4828 276.254 35.2566 283.705 42.7801C291.709 50.8628 296.583 59.0358 299.457 64.8324C300.915 64.4402 301.954 64.6187 302.607 64.8324C305.857 65.8978 308.182 70.6957 307.857 74.8085C307.692 76.9024 306.864 78.5054 307.857 80.059C308.46 81.0025 309.59 80.8125 309.958 81.6342C310.437 82.7063 309.33 84.2369 308.383 85.3095C310.975 87.9133 321.829 98.9982 327.284 109.987C330.294 116.049 330.42 119.581 330.435 120.488C330.487 123.627 329.704 124.604 329.385 129.939C329.094 134.789 329.686 134.909 329.385 138.34C328.801 145.002 326.496 145.4 326.234 150.416C325.989 155.12 327.973 155.577 329.385 163.018C330.153 167.067 331.009 171.576 329.91 175.619C327.681 183.819 317.612 187.733 313.633 189.27C290.561 198.184 254.754 187.599 240.125 182.97C197.833 169.586 176.687 162.894 161.892 145.166C156.852 139.126 142.345 121.743 141.94 96.8607C141.251 54.4474 182.174 29.2195 187.62 25.9784C195.508 21.2839 208.691 13.6764 226.999 14.4272C245.041 15.1675 257.927 23.6093 263.228 27.5536Z" fill="#FFBD66"/>
<path d="M191.558 135.977C202.272 134.293 207.629 133.451 210.985 136.502C214.463 139.665 211.714 143.107 215.71 150.679C217.701 154.451 220.023 156.704 224.636 161.18C230.44 166.811 234.479 166.545 236.187 170.631C237.584 173.97 236.663 179.137 235.662 181.657C227.787 180.082 218.413 175.464 207.309 169.581C191.061 160.971 174.298 146.698 177.381 140.178C178.388 138.047 182.778 137.357 191.558 135.977Z" fill="#DB9256"/>
<path d="M298.406 99.4859C301.535 100.089 304.177 98.0688 305.757 96.8606C307.407 95.5994 308.786 94.5451 309.433 92.6602C310.671 89.052 308.605 84.2105 306.282 83.7343C304.282 83.3242 300.99 85.9232 295.256 97.9107C295.877 98.4463 296.944 99.2039 298.406 99.4859Z" fill="#D9F0F9"/>
<path d="M294.206 94.7604C293.853 94.657 294.181 90.3326 296.899 86.0014C297.079 85.7153 297.233 85.4858 297.356 85.3094C298.525 83.6329 300.793 81.0874 305.232 79.0088C303.078 80.6138 300.239 82.0877 297.881 85.8345C295.157 90.163 294.535 94.8565 294.206 94.7604Z" fill="black"/>
<path d="M295.256 97.3857C295.256 97.3857 296.366 91.0966 300.507 86.8847C301.526 85.8477 302.448 85.2045 303.023 84.8075C303.457 84.5083 307.404 81.7843 308.382 82.6842C308.646 82.9268 308.872 83.5973 307.857 85.8345C307.691 85.5452 307.368 85.0795 306.807 84.7844C306.807 84.7844 305.831 84.4179 304.182 84.7844C299.457 85.8345 295.256 97.3857 295.256 97.3857Z" fill="black"/>
<path d="M300.244 99.3887C300.228 99.6024 299.932 99.7326 299.673 99.824C299.404 99.9179 299.137 100.012 298.868 100.107C298.605 100.199 298.324 100.294 298.035 100.269C297.877 100.256 297.729 100.207 297.585 100.158C297.009 99.9662 296.411 99.762 296.014 99.395C295.811 99.2075 295.672 98.9865 295.552 98.7628C295.275 98.2498 295.087 97.7101 294.993 97.1614C295.111 97.0963 295.285 97.1204 295.399 97.1882C295.514 97.2559 295.583 97.3578 295.644 97.457C296.032 98.0818 296.359 98.8069 297.172 99.1288C297.392 99.2159 297.619 99.2758 297.815 99.3934C297.989 99.4979 298.052 99.6034 298.282 99.6318C298.836 99.7 299.688 99.4596 300.244 99.3887Z" fill="black"/>
<path d="M309.507 92.0598C310.029 91.3515 310.206 90.4358 310.168 89.5569C310.136 88.7866 309.988 87.9486 309.721 87.2262C309.571 87.8673 309.862 88.6737 309.886 89.3364C309.914 90.0667 309.966 91.4376 309.507 92.0598Z" stroke="black" stroke-width="1.33333" stroke-miterlimit="10"/>
<path d="M305.232 92.1352C305.232 95.0351 302.882 97.3857 299.982 97.3857C298.844 97.3857 297.724 97.0119 296.818 96.3257C296.619 96.1755 296.337 95.9886 296.2 95.7775C295.967 95.4184 296.104 95.3349 296.303 94.94C296.616 94.3215 296.9 93.6831 297.053 93.0042C297.141 92.614 297.185 92.2113 297.33 91.8385C297.432 91.575 297.582 91.3329 297.734 91.0945C298.41 90.0308 299.14 89.0011 299.92 88.0104C300.247 87.594 300.536 86.9886 301.073 86.9981C301.501 87.0054 302.035 87.2826 302.406 87.4764C304.126 88.3732 305.232 90.1946 305.232 92.1352Z" fill="black"/>
<path d="M311.608 84.8329C312.482 83.8326 313.011 82.3284 312.35 81.1764C311.493 82.2501 310.521 83.2325 309.455 84.0999C310.098 83.6447 310.49 82.9222 310.858 82.2254C311.154 81.6663 311.445 80.9632 311.089 80.4408C310.626 81.6563 309.8 82.7311 308.745 83.4914C309.398 82.6996 309.885 81.7702 310.164 80.7826C310.209 80.6235 310.155 80.3668 309.999 80.4187C309.573 81.3733 308.922 82.227 308.116 82.8907C308.17 82.0448 308.127 81.1932 307.988 80.3573C307.804 80.3337 307.737 80.5883 307.727 80.7737C307.68 81.6122 307.307 82.4281 306.704 83.0125C306.715 82.3693 306.592 81.7235 306.344 81.1297C306.255 81.7587 306.166 82.3872 306.077 83.0162C305.886 82.2454 305.444 81.5397 304.835 81.0299C304.809 81.5192 304.783 82.0086 304.758 82.4979C304.718 83.2498 304.631 84.0978 304.04 84.5646C304.975 84.6438 305.913 84.8413 306.746 85.2734C307.513 85.6724 308.103 86.7897 308.936 86.6485C309.897 86.4852 310.992 85.538 311.608 84.8329Z" fill="black"/>
<path d="M300.455 84.4115C300.781 84.8893 300.975 85.4559 301.011 86.0324C301.47 85.1744 301.637 84.1952 301.798 83.2354C301.901 83.8739 301.914 84.527 301.836 85.1692C302.413 84.3092 302.859 83.362 303.156 82.3696C303.17 83.0522 303.184 83.7347 303.199 84.4173C303.564 83.898 303.848 83.322 304.038 82.7161C304.148 83.2433 304.256 83.8135 304.03 84.3023C303.771 84.8636 303.158 85.1508 302.61 85.4354C302.197 85.6496 300.92 86.7927 300.49 86.6971C300.026 86.5937 300.452 84.9308 300.455 84.4115Z" fill="black"/>
<path d="M250.626 128.889C251.599 130.751 257.343 130.362 262.703 126.789C269.003 122.588 273.729 114.712 273.729 114.712C273.729 114.712 269.003 112.087 260.077 114.712C260.077 114.712 253.655 117.804 250.626 127.839C250.547 128.102 250.431 128.517 250.626 128.889Z" fill="#D9F0F9"/>
<path d="M275.837 115.473C276.078 114.903 276.067 114.154 275.59 113.761C275.189 113.431 274.614 113.46 274.094 113.479C271.254 113.589 268.422 112.911 265.586 113.087C263.041 113.245 260.544 114.104 258.441 115.546C257.435 116.236 256.521 117.053 255.655 117.913C254.916 118.647 254.204 119.42 253.663 120.309C253.195 121.078 252.863 121.919 252.507 122.745C251.809 124.366 251.013 125.946 250.125 127.472C249.118 129.202 247.934 130.92 246.21 131.937C247.933 130.949 249.864 130.325 251.839 130.118C253.297 129.965 254.773 130.037 256.23 129.865C257.686 129.693 259.173 129.242 260.224 128.22L256.967 128.491C254.933 128.661 252.656 128.756 251.112 127.421C251.851 125.066 252.821 122.782 254.002 120.613C254.458 119.775 254.949 118.948 255.579 118.231C257.18 116.409 259.519 115.448 261.77 114.548C262.455 114.274 263.148 113.998 263.878 113.895C264.477 113.81 265.087 113.844 265.691 113.81C266.961 113.736 268.218 113.36 269.484 113.484C270.75 113.608 272.096 114.465 272.162 115.735C272.204 116.562 271.703 117.307 271.223 117.981C270.994 118.304 269.162 120.613 270.185 120.298C270.636 120.159 271.15 119.066 271.621 118.721C272.99 117.72 275.127 117.152 275.837 115.473Z" fill="black"/>
<path d="M265.328 119.963C265.328 123.153 262.742 125.739 259.552 125.739C257.926 125.739 256.351 125.037 255.262 123.829C254.596 123.091 252.925 120.277 254.056 119.471C254.261 119.324 254.502 119.228 254.696 119.065C254.915 118.88 255.057 118.622 255.224 118.388C255.535 117.954 255.938 117.596 256.338 117.241C256.585 117.023 256.831 116.805 257.077 116.586C257.29 116.397 257.505 116.208 257.738 116.045C257.937 115.904 258.15 115.784 258.363 115.664C259.14 115.224 260.234 114.282 261.132 114.376C261.87 114.454 262.793 115.128 263.335 115.598C264.593 116.689 265.328 118.299 265.328 119.963Z" fill="black"/>
<path d="M243.789 123.234C245.857 124.397 248.09 125.266 250.399 125.805C248.506 125.288 246.896 123.829 246.194 121.996C247.694 123.222 249.308 124.498 251.232 124.719C250.056 124.034 249.08 123.009 248.454 121.8C249.531 122.25 250.608 122.701 251.685 123.152C251.452 122.697 250.948 122.465 250.521 122.184C250.093 121.903 249.679 121.44 249.796 120.942C250.631 121.429 251.579 121.722 252.544 121.79C252.043 121.357 251.659 120.79 251.44 120.165C251.997 120.374 252.598 120.464 253.191 120.427C252.766 119.898 252.34 119.368 251.915 118.839C252.582 119.13 253.25 119.421 253.917 119.712C253.784 119.258 253.652 118.804 253.519 118.351C253.941 118.562 254.388 118.725 254.847 118.833C254.585 118.353 254.257 117.909 253.876 117.518C254.543 117.349 255.287 117.517 255.817 117.955C255.712 117.412 255.478 116.894 255.14 116.456C255.846 116.589 256.572 116.613 257.285 116.528C256.825 116.168 256.423 115.734 256.1 115.248C256.872 115.542 257.728 115.612 258.538 115.447C258.121 115.096 257.704 114.743 257.288 114.391C257.982 114.537 258.675 114.682 259.369 114.828C259.086 114.4 258.804 113.972 258.522 113.545C259.162 113.982 259.938 114.214 260.713 114.202C260.474 113.707 260.111 113.273 259.667 112.948C260.394 113.208 261.122 113.468 261.849 113.728C261.535 113.4 261.221 113.072 260.907 112.743C261.681 112.953 262.455 113.162 263.229 113.372C263.005 113.051 262.781 112.732 262.557 112.411C263.328 112.691 264.138 112.865 264.956 112.925C264.864 112.7 264.771 112.474 264.679 112.248C265.453 112.608 266.313 112.78 267.166 112.745C267.027 112.516 266.889 112.288 266.749 112.06C267.489 112.602 268.362 112.96 269.27 113.092C269.097 112.828 268.925 112.565 268.752 112.301C269.46 112.634 272.568 113.207 273.203 113.663C268.478 113.138 261.127 114.188 257.452 116.288C254.795 117.806 253.719 121.157 252.262 123.847C251.764 124.764 251.304 125.719 250.65 126.538C249.903 127.474 249.321 127.243 248.253 126.866C246.409 126.214 244.791 124.917 243.789 123.234Z" fill="black"/>
<path d="M245.901 124.689C245.76 124.611 247.595 117.869 253.252 113.137C259.118 108.23 266.332 107.8 270.053 107.887C265.031 108.178 258.876 109.446 253.777 113.662C248.114 118.343 246.04 124.765 245.901 124.689Z" fill="black"/>
<path d="M269.003 95.8106C269.905 95.6468 273.194 95.9965 273.729 97.9108C274.149 99.4162 272.85 101.296 272.154 101.586C265.853 104.211 260.242 105.719 255.352 106.312C249.808 106.984 242.325 109.55 233.825 117.863C242.615 108.622 248.485 103.56 253.777 100.536C257.452 98.4359 263.228 96.8607 269.003 95.8106Z" fill="#B28802"/>
<path d="M293.156 91.0851C293.156 91.0851 294.067 82.4348 296.307 74.8084C299.161 65.0902 300.723 64.3966 301.557 64.3073C303.657 64.0821 306.524 67.1085 306.283 69.5579C306.18 70.5964 305.541 71.3105 305.233 71.6581C303.001 74.1726 301.214 77.0651 298.932 79.5339C293.956 84.9146 293.156 91.0851 293.156 91.0851Z" fill="#B28802"/>
<path d="M324.135 145.691C323.111 145.962 321.99 146.259 320.984 147.266C319.095 149.156 319.887 151.265 318.359 151.991C317.792 152.261 317.449 152.083 316.258 151.991C316.258 151.991 314.138 151.829 311.008 152.517C307.626 153.259 305.132 156.626 303.657 158.293C301.283 160.976 296.963 164.146 288.43 165.643C287.556 165.883 287.374 166.054 287.38 166.168C287.392 166.396 288.165 166.545 288.955 166.693C290.046 166.897 290.664 166.924 290.664 166.924C294.826 167.104 298.972 167.55 303.132 167.744C310.944 168.107 309.833 168.535 311.533 168.269C317.266 167.37 321.041 163.966 322.034 163.018C323.854 161.281 325.508 159.814 326.234 157.242C327.428 153.022 325.253 149.274 324.66 148.317C324.791 148.065 325.755 146.196 325.184 145.691C325.094 145.611 324.975 145.574 324.812 145.574C324.641 145.574 324.421 145.615 324.135 145.691Z" fill="#7D0043"/>
<path d="M312.5 157.119C310.5 157.919 300 162.785 295 165.119C296.5 164.619 315.5 163.619 321 158.619C326.5 153.619 325.5 148.119 324 149.119C322.5 150.119 321.5 153.119 321 153.619C320.5 154.119 315 156.119 312.5 157.119Z" fill="#6B0032" fill-opacity="0.5"/>
<path opacity="0.300003" d="M290.006 166.168C290.035 166.306 295.643 165.248 301.032 164.068C308.913 162.341 311.404 161.432 313.633 160.392C318.7 158.029 320.389 155.942 320.984 155.142C322.733 152.788 323.357 150.354 323.609 148.841C322.798 150.665 321.375 153.266 318.884 155.667C316.966 157.515 314.062 159.586 302.082 163.017C294.892 165.077 289.978 166.038 290.006 166.168Z" fill="black"/>
<path d="M296.896 142.42C297.008 142.735 297.153 143.047 297.394 143.28C297.931 143.798 298.794 143.788 299.421 144.194C299.558 144.282 299.691 144.394 299.852 144.419C299.992 144.441 300.133 144.396 300.265 144.345C300.831 144.13 301.359 143.817 301.821 143.425C301.903 143.713 301.644 143.978 301.406 144.161C300.082 145.179 298.599 145.988 297.026 146.548C296.851 146.61 296.656 146.669 296.484 146.598C296.227 146.492 296.162 146.164 296.138 145.886C295.993 144.148 295.879 141.947 296.535 140.305C296.567 141.027 296.65 141.734 296.896 142.42Z" fill="#DB9256"/>
<path d="M269.003 105.787C269.021 103.964 274.05 101.62 278.979 102.111C281.629 102.375 283.174 102.353 291.58 108.937C299.01 114.756 298.528 114.841 302.606 117.863C310.478 123.696 309.195 124.991 303.919 128.102C300.33 130.218 297.134 131.316 294.731 123.639C291.709 113.984 290.773 113.281 290.005 113.137C287.963 112.756 286.797 116.277 280.554 122.588C277.595 125.58 275.457 127.709 272.153 129.414C266.855 132.15 260.978 132.548 260.602 131.514C260.157 130.29 267.801 128.067 274.253 119.963C276.504 117.136 278.721 114.277 277.929 111.562C276.633 107.123 268.979 108.116 269.003 105.787Z" fill="#DB9256"/>
<path opacity="0.350006" d="M316.783 138.865C316.515 138.086 312.263 138.722 308.907 139.915C307.546 140.399 304.008 141.8 304.182 142.54C304.36 143.301 308.45 143.356 312.058 142.015C314.377 141.153 317.01 139.523 316.783 138.865Z" fill="black"/>
<path d="M301.819 107.099C301.819 107.099 307.869 113.792 314.945 118.65C315.11 118.764 319.88 122.038 323.346 127.051C324.014 128.017 324.87 129.391 324.921 131.252C324.991 133.819 323.484 135.749 322.821 136.502C323.874 135.504 325.964 133.222 325.971 130.202C325.979 127.084 323.763 124.816 322.296 123.376C314.338 115.568 301.819 107.099 301.819 107.099Z" fill="#DB9256"/>
<path d="M160.317 62.7321C155.319 61.5108 135.382 57.1518 124.614 67.9826C120.169 72.4535 117.06 79.7402 120.413 106.837C124.91 143.174 135.035 166.706 158.217 221.299C158.576 222.142 160.456 226.571 163.993 231.8C167.292 236.677 170.974 241.99 177.644 245.451C181.564 247.485 185.43 248.315 188.67 248.601C183.424 245.575 177.511 241.359 171.869 235.475C152.839 215.631 150.282 190.79 149.816 181.394C151.573 191.053 155.895 206.253 167.668 220.248C170.795 223.965 174.017 227.086 177.119 229.699C173.01 225.857 165.708 217.887 162.418 205.547C161.684 202.793 160.305 197.623 161.368 197.146C163.446 196.213 170.519 215.173 184.47 232.85C201.464 254.382 222.502 266.202 245.376 279.055C267.028 291.22 264.957 286.92 274.779 293.756C312.342 319.898 326.591 371.614 323.084 411.893C322.326 420.603 320.849 427.507 319.934 431.32C323.807 428.702 330.045 423.746 335.161 415.569C339.226 409.07 341.081 402.937 341.986 398.767C342.703 401.735 343.408 406.377 342.511 411.893C342.036 414.819 341.224 417.293 340.411 419.244C344.615 415.132 350.254 408.314 352.487 398.767C354.898 388.461 352.164 379.999 345.662 362.538C336.1 336.864 331.165 324.085 328.335 318.434C312.413 286.639 300.473 262.798 276.88 243.351C242.891 215.335 223.591 228.484 204.947 201.346C197.141 189.984 187.314 168.45 180.606 148.237C179.638 145.321 178.311 141.153 176.069 133.089C171.599 117.007 165.729 93.474 160.317 62.7321Z" fill="#B28802"/>
<path opacity="0.300003" d="M199.356 192.127C192.823 180.236 185.784 163.845 180.605 148.237C179.637 145.321 178.31 141.153 176.068 133.09C171.598 117.007 165.728 93.4742 160.317 62.7323C155.318 61.511 135.381 57.1515 124.613 67.9828C120.168 72.4537 117.059 79.7404 120.413 106.837C123.112 128.652 127.843 145.855 136.207 167.932C140.431 165.836 146.088 161.476 153.754 153.304C151.652 159.393 150.005 166.855 150.078 175.356C150.134 181.866 151.193 187.939 152.897 193.536C155.604 201.741 160.092 211.243 167.667 220.249C170.794 223.965 174.016 227.086 177.118 229.7C173.009 225.856 165.707 217.887 162.417 205.547C161.683 202.793 160.304 197.623 161.367 197.146C162.069 196.831 163.344 198.792 165.26 202.202C164.287 198.777 163.555 195.231 163.205 191.633C162.367 183.044 163.614 173.71 163.992 170.88C164.496 167.107 165.497 159.621 166.88 159.605C168.314 159.588 168.356 168.386 170.555 175.356C173.079 183.355 179.971 193.822 199.958 203.184C199.782 199.43 199.58 195.746 199.356 192.127Z" fill="#FFD00D"/>
<path d="M192.871 143.59C184.105 144.911 177.455 161.322 178.17 175.094C179.445 199.66 204.331 219.184 223.849 226.024C230.222 228.257 251.371 235.669 265.854 232.325C267.4 231.968 272.282 230.7 277.93 232.325C283.373 233.89 287.152 237.459 289.481 240.2C288.788 236.265 287.219 230.663 283.18 225.499C269.935 208.561 247.686 218.792 232.775 203.447C223.81 194.221 229.966 188.58 217.549 167.743C212.074 158.556 202.308 142.168 192.871 143.59Z" fill="#A87D04"/>
<path d="M261.653 27.0284C261.841 29.9036 259.466 33.0309 240.126 45.4053C231.211 51.1095 223.718 55.562 218.599 58.5317C220.843 67.5012 223.364 82.8606 219.649 101.061C219.649 101.061 214.83 124.67 198.647 143.591C197.881 144.486 197.131 145.311 196.021 146.216C185.71 154.624 167.943 150.658 160.843 146.741C140.077 135.283 134.875 82.4758 159.268 48.0306C178.979 20.1969 214.926 8.71505 240.651 14.4271C248.012 16.0616 261.234 20.5913 261.653 27.0284Z" fill="#B28802"/>
<path d="M244.327 43.3052C243.783 39.8703 243.5 33.8285 247.477 24.9283C250.584 17.9739 265.572 15.2762 274.255 17.0524C297.357 21.7779 299.982 58.5317 299.982 58.5317C299.982 58.5317 288.431 40.6799 270.054 33.8542C260.977 30.4828 254.669 37.2476 244.327 43.3052Z" fill="#B28802"/>
<path d="M233.825 48.5556C233.825 48.5556 214.613 54.1328 209.673 65.3574C208.028 69.0958 207.688 72.3317 207.573 73.7582C205.581 98.4568 224.374 128.889 224.374 128.889C231.878 141.039 245.33 159.512 267.954 177.194C253.265 162.617 234.715 139.286 231.725 108.412C228.794 78.1535 233.825 48.5556 233.825 48.5556Z" fill="#A87D04"/>
<path opacity="0.300003" d="M244.327 43.3052C243.783 39.8703 243.5 33.8285 247.477 24.9283C250.584 17.9739 265.572 15.2762 274.255 17.0524C297.357 21.7779 299.982 58.5317 299.982 58.5317C299.982 58.5317 288.431 40.6799 270.054 33.8542C260.977 30.4828 254.669 37.2476 244.327 43.3052Z" fill="#FFD00D"/>
<path d="M269.529 32.804C269.529 32.804 276.994 36.3429 285.806 45.4053C295.327 55.1976 298.932 63.7822 298.932 63.7822C298.932 63.7822 300.756 50.438 293.157 41.7299C284.756 32.1036 269.529 32.804 269.529 32.804Z" fill="#B28802"/>
<path opacity="0.300003" d="M282.918 248.339C282.918 248.339 335.068 324.733 341.199 362.276C344.389 381.811 343.299 402.18 342.774 408.48C342.168 415.755 340.358 419.648 340.149 419.507C339.802 419.273 356.477 403.714 353.275 388.528C332.798 291.393 282.918 248.339 282.918 248.339Z" fill="#FFD00D"/>
<path d="M183.42 130.464C180.802 130.091 168.437 128.044 159.793 116.813C149.426 103.344 152.998 87.826 153.492 85.8345C156.81 92.6108 160.942 100.076 166.093 107.887C171.93 116.737 177.891 124.237 183.42 130.464Z" fill="#A87D04"/>
<path opacity="0.300003" d="M164.255 73.4957C166.535 77.9251 170.8 84.7718 178.384 91.1916C187.821 99.1793 197.688 102.518 203.109 103.949C196.463 100.253 188.87 95.4157 181.033 89.1339C174.302 83.7385 168.755 78.3729 164.255 73.4957Z" fill="#FFD00D"/>
<path d="M184.995 29.6537C184.734 28.8462 195.255 23.2533 208.098 21.2528C220.369 19.3416 230.92 21.309 238.026 23.3531C231.241 23.1178 221.183 23.1898 209.148 24.9282C194.611 27.0284 185.236 30.3977 184.995 29.6537Z" fill="#A87D04"/>
<path d="M223.324 169.318C223.887 170.427 224.72 172.167 224.758 173.995C224.782 175.184 224.21 176.31 223.246 177.005C222.049 177.867 220.061 179.157 218.073 179.819C210.994 182.179 178.492 163.777 181.319 149.891C181.928 146.902 184.113 144.951 184.47 144.641C190.683 139.236 202.139 143.894 203.897 144.641C212.674 148.371 216.224 155.354 223.324 169.318Z" fill="#FFBD66"/>
<path d="M196.047 151.826C196.076 151.523 196.077 151.21 195.977 150.923C195.814 150.451 195.411 150.111 195.025 149.795C194.441 149.318 193.835 148.829 193.111 148.621C192.64 148.485 192.144 148.477 191.654 148.469C190.728 148.454 189.801 148.439 188.876 148.424C188.446 148.418 187.999 148.414 187.609 148.593C187.108 148.823 186.776 149.328 186.63 149.86C186.485 150.391 186.502 150.952 186.536 151.502C186.698 154.124 187.223 156.729 188.157 159.184C188.392 159.802 188.654 160.412 188.99 160.98C189.357 161.603 189.809 162.17 190.26 162.735C191.88 164.76 193.55 166.81 195.733 168.208C196.851 168.923 198.076 169.45 199.296 169.973C200.533 170.505 201.823 171.046 203.169 170.997C203.17 170.842 203.171 170.688 203.171 170.533C201.235 170.133 199.361 169.438 197.633 168.478C197.043 168.151 196.469 167.792 195.945 167.369C194.455 166.165 193.432 164.494 192.437 162.858C192.1 162.303 191.761 161.745 191.527 161.14C190.898 159.512 190.932 157.096 192.596 156.136C194.328 155.136 195.835 154 196.047 151.826Z" fill="#DB9256"/>
<path d="M199.477 153.698C199.544 154.598 199.606 155.534 199.27 156.37C199.06 156.894 198.707 157.344 198.376 157.801C197.553 158.933 196.829 160.171 196.535 161.539C196.243 162.908 196.429 164.429 197.284 165.536C198.022 166.492 199.18 167.05 200.361 167.297C201.542 167.543 202.762 167.508 203.968 167.471C205.942 167.411 207.915 167.351 209.888 167.291C210.997 167.257 212.112 167.224 213.211 167.373C213.731 167.444 214.261 167.555 214.775 167.448C215.735 167.249 216.431 166.2 216.242 165.238C216.102 164.528 215.563 163.955 214.957 163.559C214.351 163.165 213.665 162.91 213.024 162.573C211.431 161.736 210.731 159.901 209.353 158.743C208.287 157.848 207.165 157.08 206.504 155.855C205.843 154.63 205.157 153.291 203.909 152.677C203.166 152.311 202.311 152.254 201.484 152.268C200.915 152.276 200.286 152.343 199.901 152.761C199.45 153.25 199.514 154.008 199.607 154.667" fill="#DB9256"/>
<path d="M203.092 162.286C203.16 162.844 203.382 163.405 203.807 163.773C204.047 163.982 204.339 164.119 204.615 164.277C205.099 164.555 205.546 164.905 206.063 165.114C206.581 165.324 207.209 165.372 207.668 165.055C208.013 164.819 208.21 164.408 208.263 163.994C208.316 163.579 208.239 163.158 208.124 162.757C207.883 161.911 207.441 161.078 206.699 160.606C205.912 160.104 204.645 159.95 203.731 160.107C202.698 160.283 202.984 161.407 203.092 162.286Z" fill="#FFBD66"/>
<path d="M187.62 157.242C188.194 157.258 188.759 157.395 189.195 157.767C191.226 159.501 189.398 165.424 187.62 165.643C187 165.719 186.34 165.108 186.044 164.593C185.535 163.704 185.789 162.533 186.044 162.493C186.342 162.445 186.453 163.962 187.095 164.068C187.915 164.203 189.519 162.007 189.195 159.867C188.982 158.462 187.62 158.292 187.62 157.242Z" fill="#8E8E8E"/>
<path d="M187.473 165.643C186.787 165.628 186.204 166.104 186.014 166.689C185.787 167.391 186.148 168.177 186.744 168.435C187.626 168.815 188.94 168.004 188.933 167.039C188.927 166.375 188.298 165.66 187.473 165.643Z" fill="#8E8E8E"/>
<path d="M210.722 175.619C210.677 174.627 209.601 173.754 208.622 174.044C207.815 174.283 207.275 175.252 207.572 176.144C207.864 177.021 208.854 177.486 209.672 177.194C210.336 176.957 210.752 176.27 210.722 175.619Z" fill="#8E8E8E"/>
<path d="M212.822 177.194C213.608 177.555 214.216 177.075 214.397 176.669C214.585 176.248 214.308 175.268 213.347 175.094C212.69 174.975 212.375 175.74 212.297 176.144C212.218 176.556 212.426 177.012 212.822 177.194Z" fill="#8E8E8E"/>
</svg>
