<svg width="775" height="850" viewBox="0 0 775 850" fill="none" xmlns="http://www.w3.org/2000/svg">
<g filter="url(#filter0_f_244:970)">
<path d="M530.203 304.604C502.387 239.442 533.121 157.412 472.692 117.004C362.822 43.5377 285.544 237.044 244.598 270.044C200.936 305.234 123.775 258.428 103.334 319.815C82.5486 382.233 208.109 494.761 162.089 651.326C136.809 737.328 234.966 769.172 311.334 736.572C386.202 704.612 382.718 632.374 429.811 612.27C467.995 595.97 599.809 672.107 660.281 574.071C720.754 476.036 564.974 386.056 530.203 304.604Z" fill="#DFF9F5"/>
<path d="M530.203 304.604C502.387 239.442 533.121 157.412 472.692 117.004C362.822 43.5377 285.544 237.044 244.598 270.044C200.936 305.234 123.775 258.428 103.334 319.815C82.5486 382.233 208.109 494.761 162.089 651.326C136.809 737.328 234.966 769.172 311.334 736.572C386.202 704.612 382.718 632.374 429.811 612.27C467.995 595.97 599.809 672.107 660.281 574.071C720.754 476.036 564.974 386.056 530.203 304.604Z" fill="url(#paint0_linear_244:970)"/>
</g>
<defs>
<filter id="filter0_f_244:970" x="0.98999" y="0.489014" width="773.091" height="848.623" filterUnits="userSpaceOnUse" color-interpolation-filters="sRGB">
<feFlood flood-opacity="0" result="BackgroundImageFix"/>
<feBlend mode="normal" in="SourceGraphic" in2="BackgroundImageFix" result="shape"/>
<feGaussianBlur stdDeviation="50" result="effect1_foregroundBlur_244:970"/>
</filter>
<linearGradient id="paint0_linear_244:970" x1="594.594" y1="322.092" x2="91.8937" y2="536.685" gradientUnits="userSpaceOnUse">
<stop stop-color="#DFF9F5"/>
<stop offset="1" stop-color="white" stop-opacity="0"/>
</linearGradient>
</defs>
</svg>
