<svg width="512" height="588" viewBox="0 0 512 588" fill="none" xmlns="http://www.w3.org/2000/svg">
<path d="M559.549 283.447C581.474 213.645 660.663 169.918 640.38 97.6428C603.501 -33.7661 412.948 66.1752 358.666 64.5759C300.782 62.8705 271.667 -25.6587 214.413 8.78108C156.198 43.7991 179.161 216.39 37.9361 308.333C-39.6404 358.838 15.9937 449.725 97.7996 475.421C177.999 500.611 223.767 441.594 274.214 457.439C315.117 470.287 367.42 618.524 480.688 582.206C593.955 545.888 532.143 370.699 559.549 283.447Z" fill="#FF93D4" fill-opacity="0.26"/>
<path d="M559.549 283.447C581.474 213.645 660.663 169.918 640.38 97.6428C603.501 -33.7661 412.948 66.1752 358.666 64.5759C300.782 62.8705 271.667 -25.6587 214.413 8.78108C156.198 43.7991 179.161 216.39 37.9361 308.333C-39.6404 358.838 15.9937 449.725 97.7996 475.421C177.999 500.611 223.767 441.594 274.214 457.439C315.117 470.287 367.42 618.524 480.688 582.206C593.955 545.888 532.143 370.699 559.549 283.447Z" fill="url(#paint0_linear_244:724)"/>
<defs>
<linearGradient id="paint0_linear_244:724" x1="598.329" y1="340.4" x2="59.8309" y2="171.257" gradientUnits="userSpaceOnUse">
<stop stop-color="#FF94AD"/>
<stop offset="0.0001" stop-color="#FFE2F5" stop-opacity="0.932292"/>
<stop offset="1" stop-color="white" stop-opacity="0"/>
</linearGradient>
</defs>
</svg>
