<svg width="575" height="650" viewBox="0 0 575 650" fill="none" xmlns="http://www.w3.org/2000/svg">
<path d="M430.203 204.604C402.387 139.442 433.121 57.4116 372.692 17.0045C262.822 -56.4623 185.544 137.044 144.598 170.044C100.935 205.234 23.7751 158.428 3.3333 219.815C-17.4517 282.233 108.109 394.761 62.0883 551.326C36.8088 637.328 134.966 669.172 211.333 636.572C286.202 604.612 282.718 532.374 329.811 512.27C367.995 495.97 499.809 572.107 560.281 474.071C620.753 376.036 464.974 286.056 430.203 204.604Z" fill="#DFF9F5"/>
<path d="M430.203 204.604C402.387 139.442 433.121 57.4116 372.692 17.0045C262.822 -56.4623 185.544 137.044 144.598 170.044C100.935 205.234 23.7751 158.428 3.3333 219.815C-17.4517 282.233 108.109 394.761 62.0883 551.326C36.8088 637.328 134.966 669.172 211.333 636.572C286.202 604.612 282.718 532.374 329.811 512.27C367.995 495.97 499.809 572.107 560.281 474.071C620.753 376.036 464.974 286.056 430.203 204.604Z" fill="url(#paint0_linear_360:1264)"/>
<defs>
<linearGradient id="paint0_linear_360:1264" x1="494.594" y1="222.092" x2="-8.10655" y2="436.685" gradientUnits="userSpaceOnUse">
<stop stop-color="#DFF9F5"/>
<stop offset="1" stop-color="white" stop-opacity="0"/>
</linearGradient>
</defs>
</svg>
