<svg width="643" height="567" viewBox="0 0 643 567" fill="none" xmlns="http://www.w3.org/2000/svg">
<path d="M435.022 431.023C501.141 405.566 582.014 439.228 624.567 380.289C701.933 273.13 511.328 188.949 479.821 146.845C446.223 101.946 495.771 26.5168 435.158 3.88255C373.527 -19.1317 256.56 102.305 101.75 50.6885C16.7119 22.3352 -18.6383 119.285 11.1967 196.774C40.4458 272.742 112.763 271.856 131.161 319.642C146.079 358.387 65.255 487.38 161.055 551.335C256.854 615.291 352.373 462.845 435.022 431.023Z" fill="#DFF9F5"/>
<path d="M435.022 431.023C501.141 405.566 582.014 439.228 624.567 380.289C701.933 273.13 511.328 188.949 479.821 146.845C446.223 101.946 495.771 26.5168 435.158 3.88255C373.527 -19.1317 256.56 102.305 101.75 50.6885C16.7119 22.3352 -18.6383 119.285 11.1967 196.774C40.4458 272.742 112.763 271.856 131.161 319.642C146.079 358.387 65.255 487.38 161.055 551.335C256.854 615.291 352.373 462.845 435.022 431.023Z" fill="url(#paint0_linear_380:1266)"/>
<defs>
<linearGradient id="paint0_linear_380:1266" x1="415.232" y1="494.744" x2="218.839" y2="-15.342" gradientUnits="userSpaceOnUse">
<stop stop-color="#DFF9F5"/>
<stop offset="1" stop-color="white" stop-opacity="0"/>
</linearGradient>
</defs>
</svg>
