<svg width="312" height="294" viewBox="0 0 312 294" fill="none" xmlns="http://www.w3.org/2000/svg">
<path d="M187.173 253.922C225.131 250.278 262.196 279.417 292.774 255.009C348.371 210.633 261.716 139.445 251.466 113.063C240.535 84.9299 277.123 52.9839 248.969 32.4901C220.342 11.6522 142.152 57.7083 69.3501 8.57657C29.3592 -18.412 -2.97819 26.7431 1.29186 71.2291C5.47807 114.841 43.0989 124.832 45.7321 152.265C47.8672 174.508 -12.6764 229.705 27.7488 276.707C68.174 323.709 139.725 258.476 187.173 253.922Z" fill="#FF93D4" fill-opacity="0.26"/>
<path d="M187.173 253.922C225.131 250.278 262.196 279.417 292.774 255.009C348.371 210.633 261.716 139.445 251.466 113.063C240.535 84.9299 277.123 52.9839 248.969 32.4901C220.342 11.6522 142.152 57.7083 69.3501 8.57657C29.3592 -18.412 -2.97819 26.7431 1.29186 71.2291C5.47807 114.841 43.0989 124.832 45.7321 152.265C47.8672 174.508 -12.6764 229.705 27.7488 276.707C68.174 323.709 139.725 258.476 187.173 253.922Z" fill="url(#paint0_linear_244:725)"/>
<defs>
<linearGradient id="paint0_linear_244:725" x1="167.705" y1="284.098" x2="139.597" y2="-8.73668" gradientUnits="userSpaceOnUse">
<stop stop-color="#FF94AD"/>
<stop offset="0.0001" stop-color="#FFE2F5" stop-opacity="0.932292"/>
<stop offset="1" stop-color="white" stop-opacity="0"/>
</linearGradient>
</defs>
</svg>
