<svg width="869" height="781" viewBox="0 0 869 781" fill="none" xmlns="http://www.w3.org/2000/svg">
<path d="M209.793 268.961C141.917 328.605 30.2938 324.026 5.39479 413.329C-39.8757 575.696 225.342 592.286 281.626 628.758C341.645 667.65 315.654 779.771 398.169 780.098C482.069 780.432 568.419 583.503 776.434 576.93C890.698 573.319 890.202 441.715 820.3 362.167C751.771 284.181 665.634 317.161 622.528 268.107C587.578 228.333 627.346 38.3162 484.492 4.07824C341.637 -30.1597 294.637 194.405 209.793 268.961Z" fill="#FF0099" fill-opacity="0.06"/>
<path d="M209.793 268.961C141.917 328.605 30.2938 324.026 5.39479 413.329C-39.8757 575.696 225.342 592.286 281.626 628.758C341.645 667.65 315.654 779.771 398.169 780.098C482.069 780.432 568.419 583.503 776.434 576.93C890.698 573.319 890.202 441.715 820.3 362.167C751.771 284.181 665.634 317.161 622.528 268.107C587.578 228.333 627.346 38.3162 484.492 4.07824C341.637 -30.1597 294.637 194.405 209.793 268.961Z" fill="url(#paint0_linear_244:791)"/>
<defs>
<linearGradient id="paint0_linear_244:791" x1="205.345" y1="183.983" x2="665.482" y2="707.619" gradientUnits="userSpaceOnUse">
<stop stop-color="#FF94AD"/>
<stop offset="0.0001" stop-color="#FFE2F5" stop-opacity="0.932292"/>
<stop offset="1" stop-color="white" stop-opacity="0"/>
</linearGradient>
</defs>
</svg>
